<svg xmlns="http://www.w3.org/2000/svg" viewBox="0 0 260.93 208.43"><path fill="#e64a19" d="M234.88 20.9H130.66L104.21 0H26.05A25.94 25.94 0 0 0 .13 26.05L0 182.38a26 26 0 0 0 26.05 26.05h208.43a26 26 0 0 0 26.05-26.05l.4-135.43a26 26 0 0 0-26.05-26.05m-.18 86.45-60.39-60.4h60.57zM26.45 46.95h134.19L148 59.6 164.43 76a10.93 10.93 0 0 1 13.84 13.84l15.83 15.83a10.93 10.93 0 1 1-6.54 6.18l-14.85-14.66v38.92a10.93 10.93 0 1 1-8.94-.26V96.52a11 11 0 0 1-6-14.3L141.6 66l-42.8 42.8a9.19 9.19 0 0 0 0 13l60.57 60.57H26.05zm149.63 135.43 58.57-58.57-.17 58.57z" data-name="Calque 2"/></svg>