<svg xmlns="http://www.w3.org/2000/svg" viewBox="0 0 260.73 208.58"><path fill="#7985c1" d="M234.68 20.91H130.37c.74 0-25.8-20.91-26.07-20.91H26.07A26 26 0 0 0 .13 26.06L0 182.51a26.06 26.06 0 0 0 26.05 26.07h208.61a26.06 26.06 0 0 0 26.07-26.05V47a26.07 26.07 0 0 0-26.05-26.09"/><path fill="#fff" d="m142.78 139.6-21.42-21.17.25-.27a147.8 147.8 0 0 0 31.3-55.08h24.72V46.19h-59.06V29.33H101.7V46.2H42.63v16.88h94.24a133 133 0 0 1-26.74 45.14A132 132 0 0 1 90.64 80H73.77a148.5 148.5 0 0 0 25.13 38.43L56 160.78l12 12 42.18-42.18 26.24 26.23 6.41-17.2m47.5-42.78H173.4l-38 101.25h16.88l9.45-25.31h40.07l9.53 25.31h16.88l-38-101.25m-22.1 59.06 13.66-36.54 13.67 36.54Z"/></svg>