<svg xmlns="http://www.w3.org/2000/svg" viewBox="0 0 260.93 208.43"><g fill="#7985c1"><path d="M235 20.9H130.66L104.21 0H26.05A25.94 25.94 0 0 0 .13 26v.09L0 182.38a26 26 0 0 0 26 26.05h208.48a26 26 0 0 0 26-26v-.1L260.93 47A26 26 0 0 0 235 20.9m-.1 161.48H26.05L26.45 47h208.43Z"/><path d="m142.88 139.52-21.42-21.17.25-.26A147.9 147.9 0 0 0 153 63h24.72V46.12h-59.05V29.25H101.8v16.88H42.73V63H137a133.1 133.1 0 0 1-26.74 45.14 132 132 0 0 1-19.52-28.26H73.87A148.5 148.5 0 0 0 99 118.35l-42.93 42.36 12 12 42.18-42.19 26.24 26.24 6.41-17.21m47.5-42.77h-16.9L135.54 198h16.88l9.45-25.31h40.07l9.53 25.31h16.88l-38-101.24m-22.1 59.05 13.66-36.53 13.67 36.53Z"/></g></svg>