<svg xmlns="http://www.w3.org/2000/svg" viewBox="0 0 260.93 208.43"><defs><style>.cls-1{fill:#8e95b2}</style></defs><path d="M235 20.9H130.66L104.21 0H26.05A25.94 25.94 0 0 0 .13 26v.09L0 182.38a26 26 0 0 0 26 26.05h208.48a26 26 0 0 0 26-26v-.1L260.93 47A26 26 0 0 0 235 20.9m-.1 161.48H26.05L26.45 47h208.43Z" class="cls-1"/><path d="M152.13 60.93v107.59c0 2.09 2.21 3.78 4.94 3.78h60.57c2.73 0 4.94-1.69 4.94-3.78V60.93c0-2.09-2.21-3.79-4.94-3.79h-60.57c-2.73 0-4.94 1.7-4.94 3.79m-14.89-3.79H81.19c-2.73 0-4.94 1.7-4.94 3.79v25.79c0 2.09 2.21 3.78 4.94 3.78h56.05c2.72 0 4.93-1.69 4.93-3.78V60.93c0-2.09-2.17-3.79-4.93-3.79m0 81.86H81.19c-2.73 0-4.94 1.69-4.94 3.78v25.79c0 2.09 2.21 3.78 4.94 3.78h56.05c2.72 0 4.93-1.69 4.93-3.78v-25.84c0-2.09-2.17-3.73-4.93-3.73m0-40.95H81.19c-2.73 0-4.94 1.69-4.94 3.78v25.79c0 2.09 2.21 3.78 4.94 3.78h56.05c2.72 0 4.93-1.69 4.93-3.78v-25.79c0-2.09-2.17-3.78-4.93-3.78" class="cls-1"/></svg>