<svg xmlns="http://www.w3.org/2000/svg" viewBox="0 0 260.73 208.58"><path fill="#4d5356" d="M234.68 20.91H130.37c.74 0-25.8-20.91-26.07-20.91H26.07A26 26 0 0 0 .13 26.06L0 182.51a26.06 26.06 0 0 0 26.05 26.07h208.61a26.06 26.06 0 0 0 26.07-26.05V47a26.07 26.07 0 0 0-26.05-26.09"/><path fill="#fff" d="M125.05 154.7a6.92 6.92 0 0 0 10.63 0l39.89-41.88c3.32-3.33 0-8.64-5.32-8.64h-26.59s1.33-30.58 0-46.54c-.66-7.31-6-13.29-13.3-13.29s-12.63 6-13.29 13.29c-1.33 15.29 0 46.54 0 46.54H90.48c-5.32 0-8.64 5.31-5.32 9.3Zm51.85 15.95H83.83A13.34 13.34 0 0 0 70.54 184a6.28 6.28 0 0 0 6.64 6.65h106.37a6.28 6.28 0 0 0 6.64-6.65 13.34 13.34 0 0 0-13.29-13.35"/></svg>