<svg xmlns="http://www.w3.org/2000/svg" viewBox="0 0 260.73 208.58"><path fill="#6ba0b6" d="M234.68 20.91H130.37c.74 0-25.8-20.91-26.07-20.91H26.07A26 26 0 0 0 .13 26.06L0 182.51a26.06 26.06 0 0 0 26.05 26.07h208.61a26.06 26.06 0 0 0 26.07-26.05V47a26.07 26.07 0 0 0-26.05-26.09"/><path fill="#fff" d="M125.64 78.19v27.51a8.68 8.68 0 0 1-4.19 7.59c-2.76 1.76-6.7 2.68-11.8 2.68v13c5.1 0 9 .91 11.8 2.67a8.52 8.52 0 0 1 4.19 7.6v27.57c0 8.16 3.18 14.49 9.54 18.92s15.31 6.69 26.86 6.69v-13q-8.28 0-12.8-2.95a9.3 9.3 0 0 1-4.52-8.23V140c0-7.45-2.93-13.29-8.71-17.44a19.38 19.38 0 0 0 8.71-16.81v-29.1a9.29 9.29 0 0 1 4.52-8.23c3-1.9 7.28-2.89 12.8-2.89v-13c-11.55 0-20.59 2.25-26.86 6.75s-9.54 10.72-9.54 18.91m104.01 35.1a8.51 8.51 0 0 1-4.18-7.59V78.19c0-8.16-3.18-14.49-9.54-18.92s-15.32-6.75-26.87-6.75v13c5.52 0 9.79 1 12.8 2.89a9.13 9.13 0 0 1 4.52 8.23v29.12a19.38 19.38 0 0 0 8.71 16.81c-5.78 4.15-8.71 10-8.71 17.44v28.21a9.3 9.3 0 0 1-4.52 8.23q-4.52 3-12.8 2.95v13c11.55 0 20.5-2.25 26.87-6.69s9.54-10.76 9.54-18.92v-27.54a8.68 8.68 0 0 1 4.18-7.6c2.76-1.76 6.7-2.67 11.8-2.67V116c-5.1 0-9.04-.95-11.8-2.71"/></svg>