<svg width="100" height="106" viewBox="0 0 100 106" fill="none" xmlns="http://www.w3.org/2000/svg">
<rect width="100" height="100" rx="30" fill="#C200B8" fill-opacity="0.721569"/>
<path d="M15 91V44.4545H35.0909C38.5455 44.4545 41.5682 45.0833 44.1591 46.3409C46.75 47.5985 48.7652 49.4091 50.2045 51.7727C51.6439 54.1364 52.3636 56.9697 52.3636 60.2727C52.3636 63.6061 51.6212 66.4167 50.1364 68.7045C48.6667 70.9924 46.5985 72.7197 43.9318 73.8864C41.2803 75.053 38.1818 75.6364 34.6364 75.6364H22.6364V65.8182H32.0909C33.5758 65.8182 34.8409 65.6364 35.8864 65.2727C36.947 64.8939 37.7576 64.2955 38.3182 63.4773C38.8939 62.6591 39.1818 61.5909 39.1818 60.2727C39.1818 58.9394 38.8939 57.8561 38.3182 57.0227C37.7576 56.1742 36.947 55.553 35.8864 55.1591C34.8409 54.75 33.5758 54.5455 32.0909 54.5455H27.6364V91H15ZM42.2727 69.6364L53.9091 91H40.1818L28.8182 69.6364H42.2727ZM57.75 91V44.4545H77.8409C81.2955 44.4545 84.3182 45.1364 86.9091 46.5C89.5 47.8636 91.5152 49.7803 92.9545 52.25C94.3939 54.7197 95.1136 57.6061 95.1136 60.9091C95.1136 64.2424 94.3712 67.1288 92.8864 69.5682C91.4167 72.0076 89.3485 73.8864 86.6818 75.2045C84.0303 76.5227 80.9318 77.1818 77.3864 77.1818H65.3864V67.3636H74.8409C76.3258 67.3636 77.5909 67.1061 78.6364 66.5909C79.697 66.0606 80.5076 65.3106 81.0682 64.3409C81.6439 63.3712 81.9318 62.2273 81.9318 60.9091C81.9318 59.5758 81.6439 58.4394 81.0682 57.5C80.5076 56.5455 79.697 55.8182 78.6364 55.3182C77.5909 54.803 76.3258 54.5455 74.8409 54.5455H70.3864V91H57.75Z" fill="white"/>
</svg>
