<svg xmlns="http://www.w3.org/2000/svg" width="800" height="800" fill="none" viewBox="0 0 32 32"><path fill="#FF8F00" d="M23 2H9a3 3 0 0 0-3 3v22a3 3 0 0 0 3 3h14a3 3 0 0 0 3-3V5a3 3 0 0 0-3-3"/><path fill="#E0E0E0" d="M20 22h-8a1 1 0 0 1 0-2h8a1 1 0 0 1 0 2m-2 3h-4a1 1 0 0 1 0-2h4a1 1 0 0 1 0 2"/><path fill="#283593" d="M22 10.81a1 1 0 0 0-.71-.8l-3.09-.88-1.33-2.58a1 1 0 0 0-1.77 0l-1.35 2.58-3 .89a1 1 0 0 0-.71.79 1 1 0 0 0 .4 1l2 1.42-.44 2.59a1 1 0 0 0 .4 1 1 1 0 0 0 .6.18 1.1 1.1 0 0 0 .46-.1L16 15.58l2.55 1.27a1 1 0 0 0 1-.09 1 1 0 0 0 .4-1l-.41-2.59 2-1.41a1 1 0 0 0 .46-.95"/><path fill="#FFA726" d="M9 2a3 3 0 0 0-3 3v22a3 3 0 0 0 3 3h7V2z"/><path fill="#FAFAFA" d="M12 20a1 1 0 0 0 0 2h4v-2zm2 3a1 1 0 0 0 0 2h2v-2z"/><path fill="#3949AB" d="m15.1 6.55-1.35 2.58-3 .89a1 1 0 0 0-.71.79 1 1 0 0 0 .4 1l2 1.42-.44 2.59a1 1 0 0 0 .4 1 1 1 0 0 0 .6.18 1.1 1.1 0 0 0 .46-.1L16 15.58V6.06a1 1 0 0 0-.9.49"/></svg>