<svg xmlns="http://www.w3.org/2000/svg" viewBox="0 0 20 14"><path fill="#058567" d="m9.5 11 .41 2.44a5 5 0 0 1-1.24.39 9 9 0 0 1-2 .2 6.46 6.46 0 0 1-5-2A7 7 0 0 1 0 7.21a7.3 7.3 0 0 1 2-5.32A6.9 6.9 0 0 1 6.94 0a9 9 0 0 1 1.94.19 4.5 4.5 0 0 1 1.2.4L9.5 3.08l-1.06-.34a5.8 5.8 0 0 0-1.39-.15 3.87 3.87 0 0 0-2.87 1.1A4.58 4.58 0 0 0 3 7a4.57 4.57 0 0 0 1.08 3.2 3.92 3.92 0 0 0 3 1.18l1.33-.12A5.4 5.4 0 0 0 9.5 11m2.39 3 .61-4H11l.34-2h1.5l.32-2h-1.5L12 4h1.5l.61-4h2l-.61 4h1l.61-4h2l-.61 4H20l-.34 2h-1.5l-.32 2h1.5L19 10h-1.5l-.61 4h-2l.61-4h-1l-.61 4zm2.95-6h1l.32-2h-1z" data-name="Calque 2"/></svg>