<svg xmlns="http://www.w3.org/2000/svg" width="800" height="800" viewBox="0 0 32 32"><path fill="#36aee8" d="M8.579 10.956a2 2 0 0 1 .125-.053q-.062.025-.125.053M2.496 22.174h1.59c.005 0 .011.006.017.005 2.378-.122 3.48-1.352 4.034-3.124.431-1.375.784-2.532 1.094-3.504v.001l.011-.035a25 25 0 0 1 2.215-2.687h.016c1.065 3.257 1.476 9.068 4.591 9.068.126 0 .257.003.384-.01-.127.013-.25.03-.376.03h2.474a2.5 2.5 0 0 1-.796-.144q.143.047.296.077.24.049.5.048c.459 0 .842-.035 1.176-.144-.334.109-.717.162-1.176.162h2.484l.001-.005.913-.009q-.175-.002-.331-.056l.004-.005c.103.031.21.037.325.037 2.403 0 4.826-4.315 8.835-11.483h-1.574l.001.064h-.293c-1.478 2.624-2.511 4.866-3.387 6.658.877-1.794 1.909-4.034 3.386-6.658h-2.405c-.08 0-.157-.011-.234-.006l-.001-.005c-2.321.14-3.407 1.318-3.953 3.067-.956 3.056-1.535 5.034-2.092 6.297q-.001.003-.002.004v-.003a10 10 0 0 1-1.191.991q.17.206.354.382.278.273.602.45h-.001a2.7 2.7 0 0 1-.603-.45 5 5 0 0 1-.354-.382 9 9 0 0 0 .408-.307c-.749-1.659-1.184-4.478-1.991-6.673.807 2.194 1.243 5.014 1.991 6.673q.39-.31.781-.685c-1.082-3.242-1.47-9.136-4.606-9.136v-.001l-1.233-.017c.196 0 .381.055.557.055-.176 0-.361-.055-.556-.055-.017 0-.034-.004-.051-.003.017 0 .034-.006.051-.006h-4.96c-.028 0-.056-.004-.085-.004-2.706 0-6.435 5.059-8.115 11.524h1.273zm23.665-11.499c-.807.254-1.401.694-1.842 1.277.441-.583 1.034-1.023 1.842-1.277m-3.792 10.866-.023.012-.034.017-.002.001.059-.029zm-.329.146q.007-.004.016-.006zl-.033.012zm-.039.016H22zm-.25.084.081-.025.03-.011q.017-.005.031-.01l.026-.01.064-.022.008-.003-.007.003-.063.022-.026.009q-.014.006-.031.01-.014.005-.031.011l-.027.009-.054.016-.004.001.003-.001zM8.704 10.91v-.008l.007.008c-.053 0-.105.037-.157.059l.025-.012-.126.057q-.034.016-.067.033zm.487-.172c-.007.004-.012.019-.018.019l-.132.035q-.007.002-.015.005l-.037.011q.02-.008.037-.013c.006 0 .011-.005.015-.005l.132-.035c.006 0 .011-.018.018-.018.012-.004.024-.02.037-.021-.013.001-.025.021-.037.023zm.058-.006-.019.01c.006-.004.012-.011.019-.013.013-.004.025-.014.039-.014-.014 0-.026.015-.039.017m.483-.016c-.024-.004-.047-.002-.07-.002H9.66c.023 0 .046-.003.07 0l.008-.001q-.002.002-.006.003m.062-.031c-.058 0-.115.012-.174.016.008 0 .016.01.024.012-.015-.002-.03-.011-.045-.012q.01-.003.021-.005l-.008-.002-.012-.006v.005c-.064.004-.06.005-.088.008l-.004-.005c-.008 0-.014.004-.021.004q-.017.005-.036.005-.01-.001-.021.004-.02.006-.037.008l-.003.001h.003c.013 0 .024-.006.037-.009.007 0 .014-.005.021-.005q.018-.001.036-.006.009.001.02-.004l.072-.007.014.001q.101-.008.201-.008zm.161.07a2 2 0 0 0-.137-.029l-.012-.003.011.002q.07.013.137.03l.004.001zm.979.782za2.3 2.3 0 0 0-.468-.584l.007.004c.169.147.321.344.461.58zm2.731-.793-.001.001zm-1.761 1.702-.004-.008zm5.2 9.312a5.454 5.454 0 0 1 0 0m3.032-.197-.021.011.022-.012zm.626.323.126.011zm-.02-.849.001-.005.001-.001c.157.267.331.487.527.639a2.1 2.1 0 0 1-.528-.633zm.446.86q-.012.005-.023.004h-.002q.012.001.023-.004.022.001.046-.004h.002q-.024.005-.046.004m.189-.021q-.026.003-.053.008c-.005 0-.01.004-.015.004h-.004q-.024.004-.049.005h-.002q.024-.002.049-.005h.004c.005 0 .01-.004.015-.004q.027-.006.053-.008h.004z"/></svg>