<svg xmlns="http://www.w3.org/2000/svg" viewBox="0 0 146.45 219.67"><path fill="#0acf83" d="M36.61 219.67a36.62 36.62 0 0 0 36.61-36.61v-36.61H36.61a36.61 36.61 0 0 0 0 73.22"/><path fill="#a259ff" d="M0 109.84a36.63 36.63 0 0 1 36.61-36.62h36.61v73.23H36.61A36.62 36.62 0 0 1 0 109.84"/><path fill="#f24e1e" d="M0 36.61A36.62 36.62 0 0 1 36.61 0h36.61v73.22H36.61A36.62 36.62 0 0 1 0 36.61"/><path fill="#ff7262" d="M73.22 0h36.62a36.61 36.61 0 0 1 0 73.22H73.22z"/><path fill="#1abcfe" d="M146.45 109.84a36.62 36.62 0 1 1-36.61-36.62 36.62 36.62 0 0 1 36.61 36.62"/></svg>