<svg width="401pt" height="428" viewBox="0 0 401 321" xmlns="http://www.w3.org/2000/svg"><path fill="#ffa000" d="M31.25 2.27C37.37.7 43.74 1 50 .99c29.36.04 58.73-.01 88.09.01 3.54-.38 5.75 2.73 8 4.9 11.59 11.77 23.32 23.39 35 35.07-43.03.06-86.06.02-129.09.03-7.73.04-15.7-.63-23.14 1.92-9.13 3.11-17.43 9.26-22.21 17.74-2.62 4.51-4.39 9.47-5.58 14.53C.99 66.8 1 58.4.99 50c0-6.55-.25-13.22 1.5-19.6C6.12 16.78 17.56 5.6 31.25 2.27z"/><path fill="#ffca28" d="M28.86 42.92C36.3 40.37 44.27 41.04 52 41c43.03-.01 86.06.03 129.09-.03 60.31.06 120.62.03 180.94.01 9.96-.03 19.68 4.33 26.81 11.19 6.76 6.4 10.86 15.24 12.16 24.4V284.4c-1.18 9.24-5.03 18.27-11.77 24.82-6.54 6.76-15.59 10.57-24.82 11.78H37.6c-14.13-1.49-27.26-10.54-33.03-23.6C.19 288.23 1.04 277.85 1 268c.05-64.27-.09-128.54.07-192.81 1.19-5.06 2.96-10.02 5.58-14.53 4.78-8.48 13.08-14.63 22.21-17.74z"/></svg>