<svg xmlns="http://www.w3.org/2000/svg" width="880pt" height="668pt" viewBox="0 0 880 668"><path fill="#ffa000" d="M27.27 23.27C42.4 8.91 63.13.61 84.01.66 150.01.62 216 .67 282 .64c3.3.03 6.62-.24 9.91.2 2.28.94 3.77 3.08 5.53 4.72 25.43 25.56 51.02 50.96 76.43 76.54 2.5 2.99 6.75 1.64 10.14 1.93 108.33-.05 216.66-.04 324.99-.01 25.4-.39 50.3 12.17 65.82 32.15 11.01 14.13 17.59 31.87 17.59 49.85.05 10.99-.02 21.99.03 32.98 0 3.31.19 6.65-.34 9.93-181.03.16-362.07.02-543.1.07-9.5-.01-19.1-.41-28.45 1.54-15.65 3.24-30.6 10.69-41.87 22.14-13.39 12.45-21.68 29.88-24.19 47.9-23.45 128.97-46.84 257.95-70.38 386.91-18.28-.18-36.48-6.41-50.88-17.71C13.03 634.37.76 609.39.82 583.98.78 421.99.81 259.99.8 98c.06-8.07-.31-16.17.7-24.2 2.25-19.19 11.64-37.38 25.77-50.53"/><path fill="#ffca28" d="M220.55 210.54c9.35-1.95 18.95-1.55 28.45-1.54 181.03-.05 362.07.09 543.1-.07 16.14-.33 32.58 3.02 46.5 11.46 18.09 10.58 32.08 28.19 37.82 48.4 3.24 11.05 3.85 22.81 2.21 34.18-17.48 97.8-34.93 195.61-52.4 293.41-1.34 8.66-3.75 17.19-7.74 25.03-13.23 27.2-42.36 45.41-72.52 46.08-40.32.35-80.65.08-120.97.17H122c-12.63-.13-25.27.24-37.89-.17 23.54-128.96 46.93-257.94 70.38-386.91 2.51-18.02 10.8-35.45 24.19-47.9 11.27-11.45 26.22-18.9 41.87-22.14"/></svg>