<svg xmlns="http://www.w3.org/2000/svg" class="svg-icon" style="width:1em;height:1em;vertical-align:middle;fill:currentColor;overflow:hidden" viewBox="0 0 1024 1024"><path fill="#ED7457" d="M122.4 442.4C39.2 324 29.6 58.4 29.6 58.4S280 164.8 358.4 277.6"/><path fill="#040000" d="M106.4 453.6C20.8 332 9.6 70.4 9.6 59.2L8 28l28.8 12c10.4 4.8 256 109.6 337.6 225.6l-32.8 23.2c-58.4-84-222.4-167.2-290.4-198.4 5.6 73.6 25.6 252 87.2 340.8z"/><path fill="#FBEABE" d="M204.8 558.4C121.6 439.2 112 173.6 112 173.6S361.6 280 440.8 392.8"/><path fill="#ED7457" d="M900 442.4c83.2-118.4 92.8-384 92.8-384S742.4 164.8 664 277.6"/><path fill="#040000" d="m916 453.6-32.8-23.2c61.6-88.8 81.6-267.2 87.2-340.8-68 32-232 114.4-290.4 198.4l-32.8-23.2C728.8 149.6 974.4 44 984.8 40l28.8-12-.8 31.2c-.8 11.2-11.2 272.8-96.8 394.4"/><path fill="#FBEABE" d="M817.6 558.4c83.2-118.4 92.8-384 92.8-384S660 280 581.6 392.8"/><path fill="#ED7457" d="M960.8 610.4c-19.2-2.4-34.4-18.4-35.2-37.6-8-149.6-98.4-276.8-226.4-338.4-40.8-20-65.6-60.8-69.6-106.4 0-1.6-.8-3.2-.8-5.6C601.6 148.8 560 164 560 164s24-54.4-16-89.6c-5.6 33.6-29.6 60-58.4 82.4-32 25.6-69.6 43.2-108.8 55.2-156 48.8-271.2 190.4-280 360-1.6 19.2-16 35.2-35.2 37.6-10.4.8-23.2.8-39.2 0 54.4 212 292 384.8 473.6 384.8h30.4c181.6 0 419.2-172.8 473.6-384.8-16 1.6-28.8 1.6-39.2.8"/><path fill="#FBEABE" d="M563.2 992.8h2.4c5.6-.8 11.2-1.6 17.6-2.4h.8c163.2-29.6 349.6-176 408-355.2-76.8 16.8-172.8 54.4-269.6 111.2-79.2 45.6-147.2 96-198.4 144.8-51.2-48.8-119.2-99.2-198.4-144.8-109.6-63.2-217.6-104-298.4-116C84 813.6 275.2 964 441.6 992h.8c2.4.8 4.8.8 7.2.8s5.6.8 8 .8 4.8.8 7.2.8c3.2 0 6.4.8 9.6.8h5.6c4.8 0 10.4.8 15.2.8h30.4c6.4 0 12 0 18.4-.8h4c4.8-1.6 10.4-2.4 15.2-2.4"/><path fill="#040000" d="M429.6 839.2a96 96 0 1 0 192 0 96 96 0 1 0-192 0"/><path fill="#FFFEFE" d="M588.8 850.4c-4.8 0-8-3.2-8-8 0-31.2-24-55.2-55.2-55.2-4.8 0-8-3.2-8-8s3.2-8 8-8c40 0 71.2 31.2 71.2 71.2 0 4.8-3.2 8-8 8"/><path fill="#040000" d="M309.6 566.4a76 55.2 90 1 0 110.4 0 76 55.2 90 1 0-110.4 0"/><path fill="#FFF" d="M368.8 568.8a13.6 13.6 0 1 0 27.2 0 13.6 13.6 0 1 0-27.2 0"/><path fill="#040000" d="M629.6 566.4a76 55.2 90 1 0 110.4 0 76 55.2 90 1 0-110.4 0"/><path fill="#FFF" d="M688.8 568.8a13.6 13.6 0 1 0 27.2 0 13.6 13.6 0 1 0-27.2 0"/><path fill="#040000" d="M526.4 1015.2H496c-184 0-434.4-171.2-492.8-400l-1.6-5.6c-2.4-10.4 5.6-20.8 16-20h5.6c15.2.8 26.4.8 36 0 9.6-1.6 16.8-9.6 17.6-19.2 9.6-173.6 128-325.6 294.4-377.6 40-12.8 74.4-29.6 102.4-52C504 118.4 520 96 524 72l6.4-35.2L557.6 60c24 20.8 30.4 47.2 30.4 68.8 9.6-5.6 19.2-12.8 28-20.8l26.4-25.6 7.2 36c.8 2.4.8 4.8.8 7.2 4 40.8 25.6 74.4 58.4 90.4 137.6 66.4 228.8 202.4 237.6 355.2 0 9.6 8 17.6 17.6 19.2q14.4 1.2 36 0h5.6c10.4-.8 19.2 9.6 16 20l-1.6 5.6c-59.2 228-309.6 399.2-493.6 399.2m-476.8-384c64.8 196 287.2 344 446.4 344h30.4c159.2 0 381.6-148.8 446.4-344-4.8 0-9.6 0-13.6-.8h-.8c-28.8-4-51.2-28-52.8-56.8-8-137.6-89.6-260.8-214.4-320.8-37.6-17.6-64.8-52-76-93.6-24 15.2-46.4 24-48 24.8l-8.8 3.2c-13.6 4.8-26.4-8.8-20-21.6l4-8.8c.8-.8 7.2-16.8 4.8-35.2-11.2 17.6-27.2 34.4-48.8 52-31.2 24.8-70.4 44.8-115.2 58.4-150.4 46.4-257.6 184-266.4 341.6-2.4 29.6-24.8 52.8-52.8 56h-.8c-4 .8-8.8 1.6-13.6 1.6"/></svg>