<svg xmlns="http://www.w3.org/2000/svg" class="svg-icon" style="width:1em;height:1em;vertical-align:middle;fill:currentColor;overflow:hidden" viewBox="0 0 1024 1024"><path fill="#2196F3" d="M170.752 235.52c-27.947 45.653-56.32 91.221-84.31 136.875-27.946 45.312-55.807 91.434-83.754 137.088l.085.085-.085.085c27.947 45.654 55.808 91.734 83.755 137.003 27.946 45.653 56.32 91.307 84.309 137.003h142.08c-28.33-45.654-56.235-91.307-84.224-136.96-27.861-45.654-55.765-91.563-83.67-137.131 27.905-45.568 55.809-91.605 83.67-137.173a25647 25647 0 0 1 84.224-136.875z"/><path fill="#26A69A" d="m170.624 235.52-.085.043c27.946 45.653 55.893 91.776 83.797 137.045 27.947 45.653 56.32 91.307 84.224 136.96h142.123c-28.331-45.653-56.278-91.307-84.224-136.96-27.862-45.568-55.723-91.52-83.627-137.13z"/><path fill="#8BC34A" d="m648.661 235.52.086.043c-27.947 45.653-55.894 91.776-83.84 137.045-27.947 45.653-56.278 91.307-84.224 136.96h-142.08a25354 25354 0 0 0 84.181-136.96c27.904-45.568 55.765-91.52 83.67-137.13z"/><path fill="#FFC107" d="M506.624 235.52a25786 25786 0 0 1 84.224 136.875c27.861 45.568 55.765 91.605 83.67 137.173-27.905 45.568-55.809 91.52-83.67 137.088a25647 25647 0 0 1-84.224 136.96h142.08c27.947-45.696 56.277-91.307 84.224-136.96 27.947-45.227 55.893-91.307 83.883-136.96l-.086-.128.086-.085c-27.947-45.654-55.894-91.819-83.883-137.088-27.947-45.654-56.277-91.264-84.224-136.918z"/><path fill="#F44336" d="M714.24 235.52a25786 25786 0 0 1 84.224 136.875c27.861 45.568 55.68 91.605 83.627 137.173-27.947 45.568-55.766 91.52-83.627 137.088-27.947 45.653-55.893 91.307-84.224 137.003h142.08c27.947-45.654 56.277-91.307 84.224-136.96 27.947-45.312 55.893-91.392 83.883-137.046l-.086-.085.086-.085c-27.947-45.654-55.894-91.819-83.883-137.088-27.947-45.654-56.277-91.264-84.224-136.918z"/></svg>