<svg xmlns="http://www.w3.org/2000/svg" viewBox="0 0 27.96 24.79"><g data-name="Calque 2"><path fill="#e64a19" d="M3.38 6.58H16A3.3 3.3 0 0 0 19.18 2 3.37 3.37 0 0 0 16 0H4.29a6 6 0 0 0-1.93.18A3.23 3.23 0 0 0 0 3.65a3.3 3.3 0 0 0 3.38 2.93m18.14-2.19a3.31 3.31 0 0 0 4.25 2h.05a3.21 3.21 0 0 0 2-4.1 3.34 3.34 0 0 0-4-2.08 3.23 3.23 0 0 0-2.47 3.47 3.3 3.3 0 0 0 .17.71m3.12 4.95H12.87a9 9 0 0 0-1.93.11 3.24 3.24 0 0 0-2.38 3.45 3.2 3.2 0 0 0 3.17 2.94h13.05a3.25 3.25 0 1 0-.15-6.49zm-8.37 8.96H3.85a7.4 7.4 0 0 0-1.32.08 3.25 3.25 0 0 0 .63 6.42h13.09a3.3 3.3 0 0 0 3.2-3.09v-.07a3.26 3.26 0 0 0-3.18-3.34m7.31.14a3.18 3.18 0 0 0-2.26 3 3.31 3.31 0 1 0 6.42-1.1 3.36 3.36 0 0 0-4.16-1.9M2.36 9.41a3.32 3.32 0 1 0 4.14 2.22 3.34 3.34 0 0 0-4.14-2.22" data-name="Calque 1"/></g></svg>