<svg xmlns="http://www.w3.org/2000/svg" width="640" height="480"><path fill="#3e72bb" d="M110.73 344.775a6.99 6.99 0 0 0 3.607 6.116l195.72 108.345a6.99 6.99 0 0 0 6.766 0l195.72-108.345c2.23-1.23 3.607-3.579 3.607-6.116s-1.377-4.886-3.607-6.116l-86.816-48.056 86.816-48.056a6.986 6.986 0 0 0 0-12.232l-86.809-48.056 86.809-48.056c2.23-1.23 3.607-3.579 3.607-6.116s-1.377-4.886-3.607-6.116L316.823 13.624a7.03 7.03 0 0 0-6.773 0L114.33 121.969a6.994 6.994 0 0 0 .007 12.232l86.809 48.056-86.809 48.056a6.986 6.986 0 0 0 0 12.232l86.816 48.056-86.816 48.056a6.99 6.99 0 0 0-3.607 6.116zm188.276 0-83.461 46.162-34.468-19.076 83.433-46.176zM313.44 445.13l-34.545-19.125 181.307-100.341 34.531 19.111zm132.321-127.463L264.454 418.023l-34.482-19.083 86.851-48.042 94.477-52.299 34.461 19.069zM215.545 81.923l34.503 19.09-34.482 19.076-34.496-19.09zm48.909-27.086 34.51 19.097-34.482 19.076-34.503-19.09zm132.405 19.069-34.538 19.118-34.489-19.083 34.545-19.118zm48.902 27.072-34.531 19.111-34.482-19.076 34.545-19.111zm-83.447 46.183-34.482-19.076 34.489-19.083 34.475 19.083zm48.909-11.079 34.531 19.111-34.468 19.076-34.538-19.111zm-63.343 19.076-34.482 19.083-34.489-19.083 34.489-19.083zm-.007-54.145-34.475 19.076-34.489-19.076 34.489-19.083zm-83.391 7.99 34.475 19.083-34.482 19.076L230 128.085zm-14.441 46.155-34.503 19.09-34.468-19.076 34.496-19.09zm14.434 7.99 34.489 19.083-34.51 19.097-34.482-19.09zm48.923 27.079 34.538 19.118-34.496 19.097-34.545-19.125zm48.979 11.121-34.545-19.118 34.489-19.083 34.538 19.118zm97.818-54.152-34.531-19.111 34.531-19.111 34.531 19.111zM313.44 27.73l34.503 19.097-34.545 19.118-34.51-19.09zm-146.804 81.266 34.496 19.09-34.496 19.09-34.489-19.09zm48.944 81.252 94.477 52.299a6.99 6.99 0 0 0 6.766 0l94.477-52.299 83.433 46.183L313.44 336.785 132.147 236.43zm0 108.352 34.496 19.09-83.44 46.176-34.489-19.09z"/></svg>