<svg xmlns="http://www.w3.org/2000/svg" viewBox="0 0 62.6 61.26"><g data-name="Calque 2"><path fill="#e64a19" d="M62.51 39.32a3.16 3.16 0 0 0-.92-1.58c-1.26-1.24-4-1.89-8.25-1.95a68 68 0 0 0-9.92.73 24.7 24.7 0 0 1-4.6-3.18 33.6 33.6 0 0 1-8.31-12.89c.12-.47.22-.88.32-1.3 0 0 2-11.28 1.46-15.1A4.4 4.4 0 0 0 32 3l-.17-.44A3.58 3.58 0 0 0 28.6 0h-1a3.69 3.69 0 0 0-3.76 2.36c-1.2 4.44 0 11.09 2.29 19.69l-.58 1.4c-1.61 3.94-3.63 7.9-5.41 11.39l-.23.45C18 39 16.33 42.08 14.78 44.72l-1.59.84c-.12.06-2.85 1.51-3.49 1.89C4.27 50.7.67 54.38.07 57.3A2.42 2.42 0 0 0 1 60l1.54.78a4.7 4.7 0 0 0 2.1.5c3.87 0 8.36-4.82 14.55-15.62a145 145 0 0 1 22.41-5.32c5.4 3.03 12.1 5.16 16.32 5.16a7.6 7.6 0 0 0 1.92-.21A3.33 3.33 0 0 0 61.75 44a6.92 6.92 0 0 0 .76-4.68m-58.72 19c.7-1.93 3.5-5.75 7.63-9.13.26-.21.9-.81 1.48-1.37-4.32 6.9-7.21 9.64-9.11 10.51zM28.25 2c1.24 0 2 3.13 2 6.07a12.5 12.5 0 0 1-1.48 6.53 31.7 31.7 0 0 1-1-8.15S27.68 2 28.25 2M21 42.14q1.3-2.33 2.69-4.92a92 92 0 0 0 4.72-10.3 34.1 34.1 0 0 0 7.79 9.67l1.22 1A99 99 0 0 0 21 42.14m39.43-.35a5.8 5.8 0 0 1-2.17.37c-2.26 0-5.07-1-9-2.72 1.51-.11 2.9-.17 4.14-.17a15.9 15.9 0 0 1 5.17.56c2.17.57 2.2 1.72 1.81 1.96z" data-name="Calque 1"/></g></svg>