<svg xmlns="http://www.w3.org/2000/svg" width="854" height="854" fill="none"><path fill="#9575CD" d="M448.667 512c-42.667 0-128 42.667-128 85.333 0 85.334 128 85.334 128 85.334V640A42.664 42.664 0 0 1 406 597.333a42.666 42.666 0 0 1 42.667-42.666zm0 213.333S278 704 278 618.667c0-128 128-160 170.667-160v-53.334c-42.667 0-213.334 64-213.334 192C235.333 768 448.667 768 448.667 768zm-82.347-510.72 50.773 22.614C435.44 133.12 484.507 64 484.507 64c-18.347 43.947-30.294 80.213-37.974 108.8C498.16 66.133 602.693 0 602.693 0a679.1 679.1 0 0 0-112.64 150.613C557.467 78.933 650.907 32 650.907 32c-114.774 73.387-166.4 189.867-179.2 222.293l23.466 3.414c0 22.186 0 42.666 10.667 58.88 32.427 80.64 198.827 87.466 198.827 280.746s-171.947 256-263.254 256c-91.306 0-291.413-41.386-291.413-256 0-214.613 211.2-216.32 248.747-302.08 5.12-16.213-32.427-80.64-32.427-80.64"/></svg>