<svg xmlns="http://www.w3.org/2000/svg" width="668" height="602"><path fill="#42a5f5" d="M558 0c60.751 0 110 49.249 110 110v382c0 60.751-49.249 110-110 110H110C49.249 602 0 552.751 0 492V110C0 49.249 49.249 0 110 0zM223.125 178.042c-13.278-13.278-34.805-13.278-48.083 0s-13.278 34.805 0 48.083l76.516 76.516-76.516 76.517c-13.278 13.278-13.278 34.805 0 48.083s34.805 13.278 48.083 0l99.654-99.654c12.143-12.143 13.179-31.184 3.113-44.506a34 34 0 0 0-6.183-8.455zM367 369c-18.777 0-34 15.223-34 34s15.223 34 34 34h98c18.777 0 34-15.223 34-34s-15.223-34-34-34z"/></svg>