<svg xmlns="http://www.w3.org/2000/svg" width="90" height="86" fill="none"><path fill="#D91404" d="M63.518 51.655c-12.92 8.326-25.722 16.577-38.862 25.043l58.715 8.016zm25.409-36.843c-1.735 2.604-3.473 5.207-5.205 7.813Q74.797 36.049 65.881 49.48c-.331.5-.76.896-.294 1.664 5.744 9.483 11.441 18.996 17.152 28.498.901 1.501 1.813 2.996 2.979 4.436l3.463-69.191zM10.529 44.38c.269.255.94.402 1.251.249 5.509-2.708 11.053-5.355 16.442-8.286 1.756-.954 3.106-2.667 4.621-4.055a9807 9807 0 0 0 15.021-13.812c.307-.283.668-.556.852-.913 1.797-3.513 3.562-7.042 5.391-10.675-2.181-.817-4.248-1.62-6.34-2.35-.284-.099-.73.098-1.04.27-4.843 2.706-9.777 5.267-14.467 8.218-2.347 1.476-4.259 3.651-6.337 5.547-3.347 3.056-6.692 6.119-9.992 9.229a17 17 0 0 0-2.355 2.76c-2.258 3.286-4.446 6.619-6.737 10.048 1.282 1.326 2.445 2.592 3.69 3.77m20.133-4.493c-2.739 11.577-5.465 23.088-8.279 34.978L61.284 49.8zm21.837-19.441 11.22 27.292c7.324-11.001 14.502-21.785 21.843-32.815zM31.122 37.519l30.012 9.743c-3.761-9.163-7.393-18.005-11.101-27.035zM10.944 51.131.44 76.24l20.005-.591zm9.739 18.695.248-.054c2.401-9.988 4.838-19.907 7.291-30.284l-16.05 8.341c2.735 7.112 5.653 14.612 8.511 21.997m60.842-56.522c-3.195-.846-6.387-1.696-9.585-2.536-4.593-1.207-9.19-2.401-13.781-3.62-.573-.152-.989-.251-1.326.44-1.622 3.324-3.296 6.624-4.944 9.935-.051.103-.041.237-.08.492l29.71-4.502zM62.993 5.742l26.037 7.203L84.728.687 63.032 5.498zM70.875 85.1l-21.361-2.916c-8.873-1.211-17.73-2.544-26.623-3.569-3.225-.371-6.536-.029-9.806.026-2.687.046-5.374.148-8.06.233-.277.008-.553.064-.828.361q33.316 3.08 66.631 6.162zM.878 68.576c2.864-6.641 5.712-13.287 8.586-19.922.288-.667.267-1.118-.296-1.653-1.203-1.145-2.319-2.378-3.634-3.744L.293 69.128l.193.092c.133-.214.294-.414.392-.644M57.29 3.989c4.827-1.246 9.724-2.218 14.592-3.305.314-.071.622-.175.932-.264l-.047-.238-20.916 2.813c1.965.859 3.478 1.5 5.439.994"/></svg>