<svg xmlns="http://www.w3.org/2000/svg" width="28" height="28"><g fill="none"><path fill="#FDB300" d="M6.097 1.833 13.972 1l7.875.833 6.097 8.199L13.972 26.29 0 10.032z"/><path fill="#EA6C00" d="m5.66 10.032 8.312 16.258L0 10.032z"/><path fill="#EA6C00" d="M22.284 10.032 13.971 26.29l13.972-16.258z"/><path fill="#FDAD00" d="M5.66 10.032h16.624L13.972 26.29z"/><path fill="#FDD231" d="m13.972 1-7.875.833-.437 8.199z"/><path fill="#FDD231" d="m13.971 1 7.875.833.437 8.199z"/><path fill="#FDAD00" d="m27.943 10.032-6.097-8.2.438 8.2zM0 10.032l6.097-8.2-.437 8.2z"/><path fill="#FEEEB7" d="M13.972 1 5.66 10.032h16.624z"/></g></svg>