<svg xmlns="http://www.w3.org/2000/svg" viewBox="0 0 22.29 28"><g fill="#fbc02d"><path d="M21.86 22.21 15.14 8.76V2h1V0h-10v2h1v6.76L.42 22.21A4 4 0 0 0 4 28h14.3a4 4 0 0 0 3.57-5.79zM20 25a2 2 0 0 1-1.7 1H4a2 2 0 0 1-1.78-2.89L3.76 20l1-2 .44-.89.25-.49L9 9.45A1 1 0 0 0 9.14 9V2h4v7a1 1 0 0 0 .11.45l3.58 7.17.69 1.38 1 2 1.55 3.11A2 2 0 0 1 20 25"/><path d="M15.31 16.3a2.23 2.23 0 1 1-3.92-1.84h-3.5L3.64 23s-.94 1.88 1 1.93h13.07c1.93 0 1-1.93 1-1.93z"/><circle cx="13.18" cy="15.77" r="1.49"/></g></svg>