<svg xmlns="http://www.w3.org/2000/svg" width="100" height="100" fill="none"><rect width="100" height="100" fill="#AEB948" rx="30"/><path fill="#fff" d="M1.08 42.273v-6.364h25.284v6.364h-8.75V65H9.83V42.273zM30.813 65 25.36 43.182h7.84l2.5 13.295h.171l2.784-13.295h7.614l2.898 13.182h.17l2.386-13.182h7.841L54.11 65h-8.466l-3.068-11.705h-.228L39.28 65zm31.137 0V43.182h7.84V65zm3.92-24.09q-1.59 0-2.727-1.052-1.137-1.051-1.137-2.528t1.137-2.529 2.727-1.051q1.606 0 2.727 1.051 1.137 1.05 1.137 2.529 0 1.476-1.137 2.528-1.122 1.05-2.727 1.051m18.427 32.726q-3.282 0-5.625-.937-2.33-.924-3.622-2.557-1.278-1.62-1.435-3.721h7.557q.114.695.568 1.122.454.426 1.165.61a6.1 6.1 0 0 0 1.62.2q1.518 0 2.513-.74 1.01-.738 1.009-2.67V61.25h-.227a4.8 4.8 0 0 1-1.307 1.89q-.88.766-2.117 1.178-1.236.398-2.713.398-2.33 0-4.29-1.08-1.945-1.08-3.124-3.423-1.165-2.343-1.165-6.122 0-3.95 1.221-6.42 1.236-2.472 3.182-3.623 1.96-1.15 4.12-1.15 1.619 0 2.84.568 1.222.554 2.046 1.491.824.924 1.25 2.032h.17v-3.807h7.841v21.761q0 2.77-1.434 4.702-1.422 1.946-4.006 2.969-2.586 1.022-6.037 1.022m.284-14.488q1.08 0 1.847-.597.78-.61 1.193-1.733.426-1.135.426-2.727 0-1.62-.426-2.77-.413-1.164-1.193-1.776-.767-.625-1.847-.625t-1.847.625q-.752.612-1.164 1.776-.398 1.15-.398 2.77t.398 2.756q.412 1.121 1.164 1.718.767.583 1.847.583"/></svg>