<svg xmlns="http://www.w3.org/2000/svg" viewBox="0 0 391.69 394.8"><path d="m390.4 60.66-184 329a10 10 0 0 1-17.41.07L1.34 60.69A10 10 0 0 1 11.78 45.9L196 78.82a10 10 0 0 0 3.55 0l180.33-32.88a10 10 0 0 1 10.52 14.72" style="fill:#7490fc"/><path d="m143.53 25.57-6.61 120.49a2.51 2.51 0 0 0 2.87 2.62l34.73-6.43a3 3 0 0 1 3.43 3.58l-9.48 49.56a2.58 2.58 0 0 0 3 3l25-4.84a1.64 1.64 0 0 1 1.94 1.82l-11.19 77.33c-.52 4 7.84 5.73 9.78 2.23l98.42-189.36c1.59-2.88-1.77-8.34-5-7.91L251.1 84.5a3.39 3.39 0 0 1-3.74-4.13L269.12 4a3.27 3.27 0 0 0-3.79-4l-117.7 20.91a5 5 0 0 0-4.1 4.66" style="fill:#ffbf00"/></svg>