<svg xmlns="http://www.w3.org/2000/svg" width="490" height="490" fill="none"><g fill="#654ff0"><path d="M301.048 0v2.64a56.183 56.183 0 1 1-112.369 0V0H0v490h490V0zm-67.203 437.549-23.858-118.061h-.41l-25.816 118.061h-32.873l-37.244-173.472h32.464l22.219 118.061h.409l26.772-118.061h30.369l24.04 119.518h.41l25.361-119.518h31.871l-41.387 173.472zm178.753 0-11.064-38.61h-58.416l-8.514 38.61h-32.463l41.979-173.472h51.222l51.04 173.472z"/><path d="m363.653 306.831-14.16 63.651h44.073l-16.254-63.651z"/></g></svg>