<svg xmlns="http://www.w3.org/2000/svg" xml:space="preserve" viewBox="0 0 256 256"><g fill="#89328e"><path d="M69.1 245.9v-3.7c0-30.8 0-61.7.1-92.5.1-45.3.1-90.6.2-135.8 0-3.8 0-3.8 3.8-3.8 52.2 0 104.3 0 156.5-.2 9.2 0 16.3 6.6 16.3 16.4-.3 68.1-.2 136.2-.2 204.3 0 9.3-5.9 15.2-15.2 15.2H72.4c-.9.1-1.8.1-3.3.1m86.7-19.9c-7.5-12.5-14.8-24.6-22-36.7 2-.7 3.8-1.2 5.5-2 16.9-7.2 15.9-27.5 8-35.9-5.2-5.4-11.8-8-19-8.4-10.9-.6-21.8-.3-32.7-.6-2.4-.1-2.9.9-2.9 3.1.1 25.8.1 51.6.1 77.4 0 .9.1 1.8.2 2.8h15v-35c2.7 0 5.1.2 7.5-.1 2.2-.2 3.3.7 4.3 2.6 5.5 10.3 11.1 20.4 16.7 30.6.4.8 1.3 1.9 2 2 5.6.3 11.1.2 17.3.2m20.3-34.2c4.4 0 8.4.1 12.4 0 7-.2 13.8-1.3 20.2-4.7 14.9-7.9 14.3-32 1.4-39.6-4.5-2.7-9.4-4.2-14.5-4.4-10.4-.4-20.9-.3-31.3-.6-2.6-.1-3.5.6-3.5 3.4.1 25.6.1 51.2.1 76.9 0 1 .1 2 .1 3.1h15.1zM53.8 10.1v235.7c-.9.1-1.8.2-2.7.2h-26c-9.1 0-15-6-15-15.1 0-68.5.1-137 .1-205.5 0-9.2 6.1-15.2 15.2-15.3z"/><path d="M108 177.9v-22.5c7.6.4 15.1-1 22.4 1.5 4.6 1.6 6.9 4.9 7 9.4.1 5.1-2.1 8.5-6.8 10.4-1.4.6-3 1.2-4.6 1.2-5.9.1-11.8 0-18 0m68.3 1.4v-24.2c6.5.4 12.9.3 19.2 1.2 5.8.8 8.9 4.8 9 10 .1 5.8-2.5 10-8.4 11.1-6.5 1.3-13.1 1.4-19.8 1.9"/></g></svg>