<?xml version="1.0" encoding="utf-8"?>
<!-- Svg Vector Icons : http://www.onlinewebfonts.com/icon -->
<!DOCTYPE svg PUBLIC "-//W3C//DTD SVG 1.1//EN" "http://www.w3.org/Graphics/SVG/1.1/DTD/svg11.dtd">
<svg version="1.1" xmlns="http://www.w3.org/2000/svg" xmlns:xlink="http://www.w3.org/1999/xlink" x="0px" y="0px" viewBox="0 0 256 256" enable-background="new 0 0 256 256" xml:space="preserve">
<metadata> Svg Vector Icons : http://www.onlinewebfonts.com/icon </metadata>
<g> <path fill="#89328e" d="M69.1,245.9v-3.7c0-30.8,0-61.7,0.1-92.5c0.1-45.3,0.1-90.6,0.2-135.8c0-3.8,0-3.8,3.8-3.8 c52.2,0,104.3,0,156.5-0.2c9.2,0,16.3,6.6,16.3,16.4c-0.3,68.1-0.2,136.2-0.2,204.3c0,9.3-5.9,15.2-15.2,15.2 c-52.7,0-105.5,0-158.2,0C71.5,245.9,70.6,245.9,69.1,245.9z M155.8,226c-7.5-12.5-14.8-24.6-22-36.7c2-0.7,3.8-1.2,5.5-2 c16.9-7.2,15.9-27.5,8-35.9c-5.2-5.4-11.8-8-19-8.4c-10.9-0.6-21.8-0.3-32.7-0.6c-2.4-0.1-2.9,0.9-2.9,3.1 c0.1,25.8,0.1,51.6,0.1,77.4c0,0.9,0.1,1.8,0.2,2.8H108v-35c2.7,0,5.1,0.2,7.5-0.1c2.2-0.2,3.3,0.7,4.3,2.6 c5.5,10.3,11.1,20.4,16.7,30.6c0.4,0.8,1.3,1.9,2,2C144.1,226.1,149.6,226,155.8,226z M176.1,191.8c4.4,0,8.4,0.1,12.4,0 c7-0.2,13.8-1.3,20.2-4.7c14.9-7.9,14.3-32,1.4-39.6c-4.5-2.7-9.4-4.2-14.5-4.4c-10.4-0.4-20.9-0.3-31.3-0.6 c-2.6-0.1-3.5,0.6-3.5,3.4c0.1,25.6,0.1,51.2,0.1,76.9c0,1,0.1,2,0.1,3.1h15.1C176.1,214.5,176.1,203.3,176.1,191.8z M53.8,10.1 v235.7c-0.9,0.1-1.8,0.2-2.7,0.2c-8.7,0-17.3,0-26,0c-9.1,0-15-6-15-15.1c0-68.5,0.1-137,0.1-205.5c0-9.2,6.1-15.2,15.2-15.3 c8.5,0,17,0,25.4,0H53.8z"/> <path fill="#89328e" d="M108,177.9v-22.5c7.6,0.4,15.1-1,22.4,1.5c4.6,1.6,6.9,4.9,7,9.4c0.1,5.1-2.1,8.5-6.8,10.4 c-1.4,0.6-3,1.2-4.6,1.2C120.1,178,114.2,177.9,108,177.9z M176.3,179.3v-24.2c6.5,0.4,12.9,0.3,19.2,1.2c5.8,0.8,8.9,4.8,9,10 c0.1,5.8-2.5,10-8.4,11.1C189.6,178.7,183,178.8,176.3,179.3z"/></g>
</svg>