<svg width="675" height="800" viewBox="0 0 675 800" fill="none" xmlns="http://www.w3.org/2000/svg"><path d="M674.927 78.144V721.78c0 43.042-35.175 78.219-78.219 78.219H78.15c-2.384 0-4.77-.119-7.034-.358-2.385-.119-4.65-.476-6.916-.953a16.147 16.147 0 0 1-3.458-.716 71.13 71.13 0 0 1-18.601-6.915c-.12 0-.12-.119-.12-.119-.357-.119-.715-.239-.954-.477a57.982 57.982 0 0 1-6.439-3.935c-2.503-1.55-4.889-3.34-7.034-5.366-1.55-1.194-2.982-2.624-4.411-4.055-2.742-2.623-5.247-5.603-7.513-8.704-.715-.954-1.43-2.027-2.147-2.982-1.668-2.384-3.22-4.887-4.41-7.392-1.193-2.028-2.147-4.173-2.982-6.319a57.09 57.09 0 0 1-2.504-6.797c-.596-1.55-.955-2.981-1.311-4.65-.358-1.311-.716-2.742-.955-4.173-.24-1.194-.358-2.503-.595-3.697 0-.239-.12-.478-.12-.714-.357-3.22-.594-6.559-.594-9.895V280.25L280.255.044h316.453c9.181 0 18.005 1.548 26.112 4.648 22.178 7.752 39.707 25.399 47.457 47.456 1.55 3.818 2.623 7.752 3.339 11.807.476 2.264.715 4.65.954 6.915a74.38 74.38 0 0 1 .357 7.274z" fill="#449ABE"/><path d="M202.041 280.231c43.004 0 78.19-35.186 78.19-78.19V0L0 280.231h202.041z" fill="#185588"/><path opacity=".06" d="M674.927 78.144V721.78c0 43.042-35.175 78.219-78.219 78.219H78.15c-2.384 0-4.77-.119-7.034-.358-2.385-.119-4.65-.476-6.916-.953a16.147 16.147 0 0 1-3.458-.716 71.13 71.13 0 0 1-18.601-6.915c-.12 0-.12-.119-.12-.119-.357-.119-.715-.239-.954-.476a58.14 58.14 0 0 1-6.439-3.936c-2.503-1.55-4.889-3.339-7.034-5.366-1.55-1.194-2.982-2.623-4.411-4.055-2.742-2.623-5.247-5.603-7.513-8.704-.715-.954-1.43-2.027-2.147-2.982-1.668-2.384-3.22-4.887-4.41-7.392-1.193-2.028-2.147-4.173-2.982-6.319a57.076 57.076 0 0 1-2.504-6.796c-.596-1.55-.955-2.982-1.311-4.65-.358-1.311-.716-2.743-.955-4.174l319.316-319.316 18.362-18.243 15.5-15.619h.119L673.616 63.955c.476 2.264.715 4.65.954 6.915.238 2.383.357 4.89.357 7.274z" fill="#040000"/></svg>