<svg xmlns="http://www.w3.org/2000/svg" xml:space="preserve" width="800" height="800" viewBox="0 0 512 512"><path d="M431.953 50.012V461.94c0 27.547-22.512 50.06-50.06 50.06H50.016c-1.526 0-3.053-.076-4.502-.229-1.526-.076-2.976-.305-4.426-.61a10.3 10.3 0 0 1-2.213-.458 45.5 45.5 0 0 1-11.905-4.426c-.076 0-.076-.076-.076-.076-.229-.076-.458-.153-.611-.305a37 37 0 0 1-4.121-2.519 28 28 0 0 1-4.502-3.434c-.992-.764-1.908-1.679-2.823-2.595-1.755-1.679-3.358-3.586-4.808-5.571-.458-.61-.916-1.297-1.374-1.908-1.068-1.526-2.061-3.128-2.823-4.731-.763-1.298-1.374-2.671-1.908-4.044a37 37 0 0 1-1.603-4.35c-.381-.992-.611-1.908-.839-2.976a27 27 0 0 1-.611-2.671c-.153-.764-.229-1.602-.381-2.366 0-.153-.076-.306-.076-.457-.229-2.061-.381-4.198-.381-6.333V179.36L179.363.028h202.53c5.876 0 11.523.991 16.712 2.975 14.194 4.961 25.412 16.255 30.372 30.372.992 2.443 1.679 4.961 2.137 7.556.305 1.449.458 2.976.611 4.426.152 1.525.228 3.129.228 4.655" style="fill:#d05251"/><path d="M129.306 179.348c27.523 0 50.042-22.519 50.042-50.042V0L0 179.348z" style="fill:#7f3f3f"/><path d="M431.953 50.012V461.94c0 27.547-22.512 50.06-50.06 50.06H50.016c-1.526 0-3.053-.076-4.502-.229-1.526-.076-2.976-.305-4.426-.61a10.3 10.3 0 0 1-2.213-.458 45.5 45.5 0 0 1-11.905-4.426c-.076 0-.076-.076-.076-.076-.229-.076-.458-.153-.611-.305a37 37 0 0 1-4.121-2.519 28 28 0 0 1-4.502-3.434c-.992-.764-1.908-1.679-2.823-2.595-1.755-1.679-3.358-3.586-4.808-5.571-.458-.61-.916-1.297-1.374-1.908-1.068-1.526-2.061-3.128-2.823-4.731-.763-1.298-1.374-2.671-1.908-4.044a37 37 0 0 1-1.603-4.35c-.381-.992-.611-1.908-.839-2.976a27 27 0 0 1-.611-2.671l204.362-204.362 11.752-11.676 9.92-9.996h.076L431.114 40.931c.305 1.449.458 2.976.611 4.426.152 1.525.228 3.129.228 4.655" style="opacity:.06;fill:#040000"/><path d="M431.495 447.898v11.294c0 27.473-22.512 49.984-49.984 49.984H49.634c-10.989 0-21.215-3.586-29.456-9.692-4.273-3.053-7.937-6.792-11.065-11.065-3.739-5.19-6.563-11.066-8.089-17.476-.229-.688-.381-1.449-.534-2.213 0-.153-.076-.306-.076-.457l2.518-2.441.916 2.289c7.86 17.475 25.488 29.838 45.787 29.838h331.878c27.471 0 49.982-22.512 49.982-50.061" style="opacity:.1;fill:#040000"/></svg>