<svg class="svg-icon" style="width: 1em;height: 1em;vertical-align: middle;fill: currentColor;overflow: hidden;" viewBox="0 0 1024 1024" version="1.1" xmlns="http://www.w3.org/2000/svg"><path d="M170.752 235.52c-27.946667 45.653333-56.32 91.221333-84.309333 136.874667C58.496 417.706667 30.634667 463.829333 2.688 509.482667l0.085333 0.085333-0.085333 0.085333c27.946667 45.653333 55.808 91.733333 83.754667 137.002667 27.946667 45.653333 56.32 91.306667 84.309333 137.002667h142.08c-28.330667-45.653333-56.234667-91.306667-84.224-136.96-27.861333-45.653333-55.765333-91.562667-83.669333-137.130667 27.904-45.568 55.808-91.605333 83.669333-137.173333A25646.506667 25646.506667 0 0 1 312.832 235.52z" fill="#2196F3" /><path d="M170.624 235.52l-0.085333 0.042667c27.946667 45.653333 55.893333 91.776 83.797333 137.045333 27.946667 45.653333 56.32 91.306667 84.224 136.96h142.122667c-28.330667-45.653333-56.277333-91.306667-84.224-136.96-27.861333-45.568-55.722667-91.52-83.626667-137.130667z" fill="#26A69A" /><path d="M648.661333 235.52l0.085334 0.042667c-27.946667 45.653333-55.893333 91.776-83.84 137.045333-27.946667 45.653333-56.277333 91.306667-84.224 136.96h-142.08a25354.24 25354.24 0 0 0 84.181333-136.96c27.904-45.568 55.765333-91.52 83.669333-137.130667z" fill="#8BC34A" /><path d="M506.624 235.52a25786.026667 25786.026667 0 0 1 84.224 136.874667c27.861333 45.568 55.765333 91.605333 83.669333 137.173333-27.904 45.568-55.808 91.52-83.669333 137.088a25646.506667 25646.506667 0 0 1-84.224 136.96h142.08c27.946667-45.696 56.277333-91.306667 84.224-136.96 27.946667-45.226667 55.893333-91.306667 83.882667-136.96l-0.085334-0.128 0.085334-0.085333c-27.946667-45.653333-55.893333-91.818667-83.882667-137.088-27.946667-45.653333-56.277333-91.264-84.224-136.917334z" fill="#FFC107" /><path d="M714.24 235.52a25786.026667 25786.026667 0 0 1 84.224 136.874667c27.861333 45.568 55.68 91.605333 83.626667 137.173333-27.946667 45.568-55.765333 91.52-83.626667 137.088-27.946667 45.653333-55.893333 91.306667-84.224 137.002667h142.08c27.946667-45.653333 56.277333-91.306667 84.224-136.96 27.946667-45.312 55.893333-91.392 83.882667-137.045334l-0.085334-0.085333 0.085334-0.085333c-27.946667-45.653333-55.893333-91.818667-83.882667-137.088-27.946667-45.653333-56.277333-91.264-84.224-136.917334z" fill="#F44336" /></svg>