<?xml version="1.0" encoding="UTF-8" ?>
<!DOCTYPE svg PUBLIC "-//W3C//DTD SVG 1.1//EN" "http://www.w3.org/Graphics/SVG/1.1/DTD/svg11.dtd">
<svg width="200pt" height="200pt" viewBox="0 0 200 200" version="1.1" xmlns="http://www.w3.org/2000/svg">
<g id="#0dc09dff">
<path fill="#0dc09d" opacity="1.00" d=" M 28.85 28.99 C 45.01 29.73 60.80 36.39 72.89 47.11 C 87.25 59.53 95.74 78.11 96.80 96.96 C 88.03 97.60 79.18 97.57 70.41 97.00 C 69.29 79.99 57.71 64.36 41.89 58.12 C 37.66 56.61 33.18 56.07 28.86 54.86 C 28.43 46.25 28.48 37.60 28.85 28.99 Z" />
<path fill="#0dc09d" opacity="1.00" d=" M 114.98 59.98 C 127.45 41.74 148.79 29.83 170.88 28.99 C 171.09 37.60 171.16 46.22 170.84 54.83 C 166.30 56.07 161.56 56.56 157.15 58.23 C 145.02 63.19 135.18 73.52 131.04 85.98 C 129.98 89.56 129.53 93.28 128.80 96.94 C 120.15 97.47 111.46 97.26 102.80 97.06 C 102.83 83.85 107.68 70.87 114.98 59.98 Z" />
<path fill="#0dc09d" opacity="1.00" d=" M 70.55 103.35 C 79.33 103.04 88.12 103.16 96.89 103.28 C 96.54 113.85 93.43 124.28 88.61 133.66 C 79.64 150.72 63.33 163.71 44.77 168.83 C 39.62 170.47 34.23 171.41 28.81 171.23 C 28.45 162.83 28.59 154.42 28.70 146.02 C 32.89 144.52 37.34 143.96 41.54 142.48 C 57.67 136.47 69.57 120.59 70.55 103.35 Z" />
<path fill="#0dc09d" opacity="1.00" d=" M 102.86 103.11 C 111.53 102.93 120.21 102.82 128.87 103.17 C 129.61 106.78 130.05 110.46 131.04 114.02 C 135.05 126.53 144.76 137.05 156.90 142.06 C 161.36 143.79 166.08 144.65 170.74 145.60 C 171.29 154.12 171.01 162.68 170.90 171.21 C 165.28 171.45 159.68 170.47 154.34 168.72 C 134.37 163.03 117.14 148.24 108.80 129.19 C 105.46 120.92 102.70 112.12 102.86 103.11 Z" />
</g>
</svg>
