<svg xmlns="http://www.w3.org/2000/svg" width="200pt" height="200pt" viewBox="0 0 200 200"><path fill="#0dc09d" d="M28.85 28.99c16.16.74 31.95 7.4 44.04 18.12 14.36 12.42 22.85 31 23.91 49.85-8.77.64-17.62.61-26.39.04-1.12-17.01-12.7-32.64-28.52-38.88-4.23-1.51-8.71-2.05-13.03-3.26-.43-8.61-.38-17.26-.01-25.87m86.13 30.99c12.47-18.24 33.81-30.15 55.9-30.99.21 8.61.28 17.23-.04 25.84-4.54 1.24-9.28 1.73-13.69 3.4-12.13 4.96-21.97 15.29-26.11 27.75-1.06 3.58-1.51 7.3-2.24 10.96-8.65.53-17.34.32-26 .12.03-13.21 4.88-26.19 12.18-37.08m-44.43 43.37c8.78-.31 17.57-.19 26.34-.07-.35 10.57-3.46 21-8.28 30.38-8.97 17.06-25.28 30.05-43.84 35.17-5.15 1.64-10.54 2.58-15.96 2.4-.36-8.4-.22-16.81-.11-25.21 4.19-1.5 8.64-2.06 12.84-3.54 16.13-6.01 28.03-21.89 29.01-39.13m32.31-.24c8.67-.18 17.35-.29 26.01.06.74 3.61 1.18 7.29 2.17 10.85 4.01 12.51 13.72 23.03 25.86 28.04 4.46 1.73 9.18 2.59 13.84 3.54.55 8.52.27 17.08.16 25.61-5.62.24-11.22-.74-16.56-2.49-19.97-5.69-37.2-20.48-45.54-39.53-3.34-8.27-6.1-17.07-5.94-26.08"/></svg>