<svg xmlns="http://www.w3.org/2000/svg" xmlns:xlink="http://www.w3.org/1999/xlink" viewBox="0 0 30 30"><g style="transform:translate(25%,5%)"><linearGradient id="a" x1="-6122.8" x2="-6118.85" y1="66.3" y2="70.93" gradientTransform="rotate(-65.2 -3090.047 -4759.667)" gradientUnits="userSpaceOnUse"><stop offset="0" stop-color="#f69923"/><stop offset=".31" stop-color="#f79a23"/><stop offset=".84" stop-color="#e97826"/></linearGradient><linearGradient id="b" x1="-6150.21" x2="-6121.99" y1="66.86" y2="66.86" gradientTransform="rotate(-65.2 -3090.047 -4759.667)" gradientUnits="userSpaceOnUse"><stop offset=".32" stop-color="#9e2064"/><stop offset=".63" stop-color="#c92037"/><stop offset=".75" stop-color="#cd2335"/><stop offset="1" stop-color="#e97826"/></linearGradient><linearGradient xlink:href="#a" id="d" x1="-6123.16" x2="-6119.21" y1="66.61" y2="71.24"/><linearGradient xlink:href="#b" id="f" x1="-6150.21" x2="-6121.99" y1="67.36" y2="67.36"/><linearGradient id="c" x1="-6146.8" x2="-6129.99" y1="69.7" y2="69.7" gradientTransform="rotate(-65.2 -3090.047 -4759.667)" gradientUnits="userSpaceOnUse"><stop offset="0" stop-color="#282662"/><stop offset=".1" stop-color="#662e8d"/><stop offset=".79" stop-color="#9f2064"/><stop offset=".95" stop-color="#cd2032"/></linearGradient><linearGradient xlink:href="#b" id="g" x1="-6148.62" x2="-6120.41" y1="66.61" y2="66.61"/><linearGradient xlink:href="#b" id="h" x1="-6150.21" x2="-6121.99" y1="66.59" y2="66.59"/><linearGradient xlink:href="#b" id="i" x1="-6148.62" x2="-6120.41" y1="66.59" y2="66.59"/><linearGradient xlink:href="#c" id="j" x1="-6146.57" x2="-6131.74" y1="66.99" y2="66.99"/><linearGradient xlink:href="#b" id="k" x1="-6148.62" x2="-6120.41" y1="69.53" y2="69.53"/><linearGradient xlink:href="#b" id="l" x1="-6148.62" x2="-6120.41" y1="70.33" y2="70.33"/><linearGradient xlink:href="#b" id="m" x1="-6148.62" x2="-6120.41" y1="70.28" y2="70.28" gradientTransform="rotate(-61.36 -3109.62 -5133.244)"/><linearGradient xlink:href="#b" id="n" x1="-6148.62" x2="-6120.41" y1="70.28" y2="70.28" gradientTransform="rotate(-53.8 -3107.822 -5990.083)"/><linearGradient xlink:href="#c" id="o" x1="-6146.8" x2="-6129.99" y1="68.51" y2="68.51"/><linearGradient xlink:href="#b" id="p" x1="-6148.62" x2="-6120.41" y1="68.51" y2="68.51"/><linearGradient xlink:href="#b" id="q" x1="-6150.37" x2="-6122.16" y1="69.38" y2="69.38"/><path fill="url(#a)" d="M13.6.84S12.82-.4 11.92.13a10.3 10.3 0 0 0-2 2.06l.8 1.51a20 20 0 0 1 1.71-2.14 18 18 0 0 0-1.6 2.17 30 30 0 0 0 3.11-.39 3.3 3.3 0 0 0-.34-2.5"/><path fill="#be202e" d="M8.93 12.87h.3l-.3.05h.14-.14z"/><path fill="#be202e" d="M8.93 12.87h.3l-.3.05h.14-.14z" opacity=".35"/><path fill="#be202e" d="M9.54 11.49h.2-.24z"/><path fill="#be202e" d="M9.54 11.49h.2-.24z" opacity=".35"/><path fill="url(#b)" d="m9.88 2.19-.18.22c-.23.29-.47.6-.72.92s-.56.76-.85 1.18-.54.78-.81 1.2-.46.72-.69 1.09l1 2.05.68-1.3q.37-.68.74-1.33T9.84 5v-.08q.39-.62.79-1.19l-.8-1.51z"/><path fill="url(#d)" d="m9.88 2.19.8 1.51z"/><path fill="url(#f)" d="m9.88 2.19.8 1.51z"/><path fill="url(#c)" d="m3.66 19-.08.21-.41 1.16-.06.17-.36 1a2.1 2.1 0 0 1 .79.93A1.68 1.68 0 0 0 3 21.36a3.62 3.62 0 0 0 3.49-1.42 3 3 0 0 0 .16-.31 1.45 1.45 0 0 1-1.4.51 4.06 4.06 0 0 0 2-1.67c.11-.18.22-.37.33-.59a3.3 3.3 0 0 1-3.11 1z"/><path fill="url(#g)" d="m6.6 6.85-.05.08c-.24.4-.48.8-.72 1.22s-.48.84-.7 1.28-.38.73-.57 1.1l-.11.23q-.34.7-.62 1.35t-.55 1.39c-.11.29-.2.58-.29.85s-.14.46-.21.7q-.23.82-.4 1.63l1 2.07.43-1.12.19-.32.56-1.43.57-1.39.59-1.4q.31-.71.63-1.42T7 10.28l.24-.49.42-.84z"/><path fill="url(#h)" d="M6.6 6.85 7.64 8.9z"/><path fill="url(#i)" d="M6.6 6.85 7.64 8.9z"/><path fill="url(#j)" d="M2.88 20.22 3.32 19l.1-.28-1-2.07v.07a16 16 0 0 0-.27 2 .3.3 0 0 1 0 .07 4.2 4.2 0 0 0-1.2-1 5.83 5.83 0 0 1 1.17 2.69 2.64 2.64 0 0 1-1.33-.23 2.66 2.66 0 0 0 1.13.69 3.25 3.25 0 0 0-1.57.78 3.36 3.36 0 0 1 1.86-.34C1.43 23.39.72 25.63 0 28a.62.62 0 0 0 .42-.41c.13-.43 1-3.25 2.31-7l.11-.32z"/><path fill="url(#k)" d="M10.59 8.75h-.12l-2.64.29-.09.18-.27.57-.3.65-.17.37-.47 1q-.3.67-.6 1.38l-.59 1.42-.59 1.49-.52 1.36v.07l-.53 1.42.84-.09a6 6 0 0 0 3.21-1.81 8 8 0 0 0 1.1-1.52 13 13 0 0 0 .71-1.47c.2-.47.38-1 .56-1.54a3 3 0 0 1-.79.27h-.32a3.67 3.67 0 0 0 2-1.91 3.3 3.3 0 0 1-1.13.49h-.2a3.8 3.8 0 0 0 .84-.47l.15-.12.21-.2.12-.14a3 3 0 0 0 .26-.36l.07-.12.09-.18c.13-.26.24-.5.32-.71s.08-.2.11-.29v-.1l.08-.26a3 3 0 0 0 .06-.28l-.11.08a4 4 0 0 1-1.29.53"/><path fill="#be202e" d="M8.91 12.87h.02z"/><path fill="#be202e" d="M8.91 12.87h.02z" opacity=".35"/><path fill="url(#l)" d="M8.91 12.87h.02z"/><circle cx="9.5" cy="11.5" fill="#be202e" transform="rotate(-3.61 9.482 11.575)"/><circle cx="9.5" cy="11.5" fill="#be202e" opacity=".35" transform="rotate(-3.61 9.482 11.575)"/><circle cx="9.5" cy="11.5" fill="url(#m)" transform="rotate(-3.61 9.482 11.575)"/><circle cx="9.5" cy="11.5" fill="#be202e" transform="rotate(-11.23 9.497 11.512)"/><circle cx="9.5" cy="11.5" fill="#be202e" opacity=".35" transform="rotate(-11.23 9.497 11.512)"/><circle cx="9.5" cy="11.5" fill="url(#n)" transform="rotate(-11.23 9.497 11.512)"/><path fill="url(#o)" d="m3.66 18.98.84-.09h-.01z"/><path fill="url(#p)" d="m3.66 18.98.84-.09h-.01z"/><path fill="url(#q)" d="M10 5q-.36.6-.76 1.33t-.75 1.38q-.32.63-.67 1.29l2.65-.29a3.2 3.2 0 0 0 1.45-1.14l.27-.4c.27-.42.54-.89.78-1.35a14 14 0 0 0 .59-1.29 7 7 0 0 0 .23-.7c0-.18.09-.36.11-.52a30 30 0 0 1-3.11.38c-.24.4-.5.81-.79 1.31"/><g fill="none"><path d="M9.07 12.85h-.14"/><path d="M9.07 12.85h-.14" opacity=".35"/><path d="M9.5 11.5h.01"/><path d="M9.5 11.5h.01" opacity=".35"/><path d="m9.51 11.5.03-.01"/><path d="m9.51 11.5.03-.01" opacity=".35"/><path d="M9.49 11.5h.01"/><path d="M9.49 11.5h.01" opacity=".35"/></g></g></svg>