<svg xmlns="http://www.w3.org/2000/svg" width="800" height="800" viewBox="0 0 24 24"><path fill="#4ca5f2" d="M4 11a3 3 0 0 0 3-3V6a3 3 0 0 0-6 0v2a3 3 0 0 0 3 3M3 6a1 1 0 0 1 2 0v2a1 1 0 0 1-2 0Zm16 0a3 3 0 0 0-6 0v2a3 3 0 0 0 6 0Zm-2 2a1 1 0 0 1-2 0V6a1 1 0 0 1 2 0Zm-7 3a1 1 0 0 1-1-1V4a1 1 0 0 1 2 0v6a1 1 0 0 1-1 1m13-7v6a1 1 0 0 1-2 0V4a1 1 0 0 1 2 0M7 18v-2a3 3 0 0 0-6 0v2a3 3 0 0 0 6 0m-4 0v-2a1 1 0 0 1 2 0v2a1 1 0 0 1-2 0m6 0a3 3 0 0 0 6 0v-2a3 3 0 0 0-6 0Zm2-2a1 1 0 0 1 2 0v2a1 1 0 0 1-2 0Zm12-2v6a1 1 0 0 1-2 0v-6a1 1 0 0 1 2 0m-5-1a1 1 0 0 1 1 1v6a1 1 0 0 1-2 0v-6a1 1 0 0 1 1-1"/></svg>