<svg xmlns="http://www.w3.org/2000/svg" xml:space="preserve" viewBox="0 0 256 256"><path fill="#00599C" d="M235.5 190.1c1.7-3 2.8-6.4 2.8-9.4V75.3c0-3-1.1-6.4-2.8-9.4L128 128z"/><path fill="#004482" d="m137.6 249.9 91.2-52.7c2.6-1.5 5-4.1 6.7-7.1L128 128 20.5 190.1c1.7 3 4.1 5.6 6.7 7.1l91.2 52.7c5.3 3 13.9 3 19.2 0"/><path fill="#659AD2" d="M235.5 65.9c-1.7-3-4.1-5.6-6.7-7.1L137.6 6.1c-5.3-3-13.9-3-19.1 0L27.2 58.8c-5.3 3-9.6 10.5-9.6 16.5v105.3c0 3 1.1 6.4 2.8 9.4L128 128z"/><path fill="#FFF" d="M128 201.5c-40.6 0-73.5-33-73.5-73.5s33-73.5 73.5-73.5c26.2 0 50.6 14.1 63.7 36.8l-31.8 18.4c-6.6-11.3-18.8-18.4-31.9-18.4-20.3 0-36.8 16.5-36.8 36.8s16.5 36.8 36.8 36.8c13.1 0 25.3-7 31.9-18.4l31.8 18.4c-13.1 22.6-37.5 36.6-63.7 36.6"/><path fill="#FFF" d="M201.5 123.9h-8.1v-8.2h-8.2v8.2H177v8.2h8.2v8.2h8.2v-8.2h8.1zM232.2 123.9H224v-8.2h-8.2v8.2h-8.1v8.2h8.1v8.2h8.2v-8.2h8.2z"/></svg>