<svg xmlns="http://www.w3.org/2000/svg" viewBox="0 0 28.01 17.95"><path fill="#765f89" d="M12.75 17a10.24 10.24 0 0 1-4.67.92 7.63 7.63 0 0 1-5.91-2.35A8.88 8.88 0 0 1 0 9.34a9.48 9.48 0 0 1 2.43-6.75A8.22 8.22 0 0 1 8.72 0a11.2 11.2 0 0 1 4 .64v3.77A6.84 6.84 0 0 0 9 3.37 4.81 4.81 0 0 0 5.3 4.9a5.9 5.9 0 0 0-1.41 4.16 5.8 5.8 0 0 0 1.33 4 4.57 4.57 0 0 0 3.59 1.49 7.3 7.3 0 0 0 3.94-1.11zm2.37-9.2V5.46h2.35V7.8h2.34v2.34h-2.34v2.35h-2.35v-2.35h-2.34V7.8zm8.2 0V5.46h2.35V7.8h2.34v2.34h-2.34v2.35h-2.35v-2.35h-2.34V7.8z"/></svg>