<svg xmlns="http://www.w3.org/2000/svg" viewBox="0 0 19.93 21.18"><g fill="#fbc02d"><path d="M2.53 13.26A21.2 21.2 0 0 0 10 14.45a21.2 21.2 0 0 0 7.44-1.19c1.86-.73 2.52-1.53 2.52-2V7.7a10.4 10.4 0 0 1-2.08 1.08 22.3 22.3 0 0 1-7.88 1.3 22.4 22.4 0 0 1-7.88-1.3A10.3 10.3 0 0 1 0 7.7v3.55c0 .47.66 1.28 2.53 2.01"/><path d="M10 21.18c5.5 0 10-1.74 10-3.89v-2.84a10.5 10.5 0 0 1-1.53.76l-.16.06A23.5 23.5 0 0 1 10 16.63a23.4 23.4 0 0 1-8.27-1.35l-.16-.06A10.5 10.5 0 0 1 0 14.45v2.84c0 2.15 4.46 3.89 10 3.89"/><ellipse cx="9.96" cy="3.89" rx="9.96" ry="3.89"/></g></svg>