<svg xmlns="http://www.w3.org/2000/svg" class="flow-logo" viewBox="-29 0 300 300"><g class="flow-logo-mark"><path fill="#1F55FF" d="m224.74 156.64-84.11-84.1h84.11z" opacity=".7"/><path fill="#1F55FF" d="m81.72 0 84.11 84.1H81.72z" opacity=".7"/><path fill="#3968FF" d="M84.45 131.79.34 47.67h101.13v84.11zm73.89 84.1L242.45 300h-84.11z" opacity=".9"/><path fill="#90AAFF" d="m101.47 215.9-84.1-84.12h84.11v84.11zm90.58-42.57L125 106.24h67.08zm7.84 118.84-76.28-76.27h76.28z" opacity=".7"/><path fill="#7CBCFC" d="m101.47 114.63-84-84h84z" opacity=".9"/><path fill="#4099F9" d="M123.95 215.89 208.06 300h-84.11z" opacity=".8"/><path fill="#4099F9" d="m209.08 249.47-84-84h84z" opacity=".7"/><path fill="#3968FF" d="m125 106.24 83.09 83.09H125z" opacity=".9"/><path fill="#376FFF" d="M101.47 299.67 0 198.18h101.47v101.48z" opacity=".7"/></g></svg>