<svg xmlns="http://www.w3.org/2000/svg" width="75mm" height="75mm" viewBox="0 0 75 75"><g transform="translate(-55.794 -59.53)"><rect width="75" height="75" x="55.794" y="59.53" ry="13.949" style="fill:#734f96;fill-opacity:1;stroke:none;stroke-width:.352777;stroke-miterlimit:4;stroke-dasharray:none;stroke-opacity:1"/><path d="M66.016 123.09c0-2.982.024-3.248.285-3.253.156-.003 1.698-.072 3.426-.153 2.784-.131 3.228-.19 3.889-.522.522-.262.845-.57 1.079-1.024.33-.645.333-.794.333-21.189 0-19.165-.019-20.574-.281-21.053-.355-.648-.97-1.135-1.727-1.366-.324-.1-2.033-.22-3.797-.267l-3.207-.087v-6.453h54.556v24.193l-2.882-.016c-1.585-.01-3.065-.067-3.288-.13-.4-.11-.41-.154-.6-2.622-.246-3.167-.447-4.57-.956-6.676-1.1-4.554-3.424-7.032-7.216-7.698-1.592-.279-8.535-.549-14.244-.553l-3.937-.003v18.19l2.07-.103c2.367-.117 4.228-.403 5.126-.787.956-.41 1.966-1.443 2.439-2.496.494-1.101.817-2.548 1.077-4.819.102-.893.219-1.788.26-1.989.075-.363.088-.365 3.238-.365h3.163v29.064h-6.447l-.108-1.677c-.196-3.035-.787-5.91-1.498-7.284-.97-1.877-2.881-2.721-6.722-2.97-.849-.054-1.785-.136-2.081-.182l-.539-.084.063 9.143c.066 9.643.095 10.02.827 10.828.752.83 1.191.888 8.833 1.149.156.005.203.768.203 3.254v3.248H66.016Z" style="fill:#fff;stroke-width:.35278"/></g></svg>