<svg xmlns="http://www.w3.org/2000/svg" viewBox="0 0 25.38 28"><defs><style>.cls-1{fill:none}.cls-3{fill:#f0d6b7}.cls-4{fill:#335061}.cls-6{fill:#dcd9d8}.cls-7{fill:#f7e4cd}.cls-8{fill:#49728b}.cls-10{fill:#fff}.cls-13{fill:#231f20}.cls-14{fill:#81b0c4}</style></defs><g id="Calque_2" data-name="Calque 2"><g id="Calque_1-2" data-name="Calque 1"><path d="M10.79 8.06a.35.35 0 0 0 .21.13.3.3 0 0 1-.08.11.3.3 0 0 0 .08-.11.35.35 0 0 1-.21-.14zm1.03-2.14h.05zm-.57.55.06-.07zm.91-.75h.08zm.36-.16h.07zm-1.01.62h.06zM14.05 6a.6.6 0 0 1 0 .11.5.5 0 0 0 0-.11m.18 10.86a1.7 1.7 0 0 0-.43-.14 1.7 1.7 0 0 1 .42.15zm-.39-11.22.09.08zM17.81 25a.7.7 0 0 1 0 .15.7.7 0 0 0 0-.15M6.46 11l.08.09zm4.64-3a3.5 3.5 0 0 1 1-1.25 3.45 3.45 0 0 0-1 1.25M9.88 22.51a16 16 0 0 0 1.55.16c.29-.61 1.31-.56 2-.4-.67-.15-1.7-.2-2 .4a16 16 0 0 1-1.55-.16 3.18 3.18 0 0 1-2.22-1.17A11.4 11.4 0 0 1 6.21 18a11.4 11.4 0 0 0 1.45 3.36 3.18 3.18 0 0 0 2.22 1.15m-4.69-9.58c.43 0 .52 1 .89 1.18-.37-.24-.46-1.11-.89-1.18m1.55-1.5v.06zm10.92 13.03a.7.7 0 0 1 .08.16.7.7 0 0 0-.08-.16m.13.24a.7.7 0 0 1 0 .14.7.7 0 0 0 0-.14M16 27.28l-.22-.28.17.23zm-9.33-11.5c-.62 0-.76.56-1.32.62a1.7 1.7 0 0 1-.72-.12 1.7 1.7 0 0 0 .73.12c.57-.06.71-.62 1.32-.62zm6.64-10.37a1.2 1.2 0 0 1 .4.14 1.2 1.2 0 0 0-.4-.14M2.93 13.19v-.08.09a3.85 3.85 0 0 0 1 2.55 3.86 3.86 0 0 1-1-2.56m7.78-5.29a.6.6 0 0 0-.08-.11c-.24-.24-.36-1.52 1-2.43.75-.51 1.26-.52 1.62-.32-.36-.2-.87-.19-1.62.32-1.34.91-1.21 2.19-1 2.44a.6.6 0 0 1 .08.1m-6.42 4.2a1 1 0 0 1 .77 0 5.2 5.2 0 0 1 1.26.5c.05.19.1.38.14.57 0-.18-.08-.37-.13-.56a5.2 5.2 0 0 0-1.25-.49 1 1 0 0 0-.79-.02M14 6.29v-.06a.6.6 0 0 1-.05.15zM5.9 10.6h-.08zm16.42-.74c-.16.05-1.09.6-1.26.14.17.46 1.1-.08 1.26-.14V9.6zm.99.7a1.23 1.23 0 0 1-.51.51 1.24 1.24 0 0 0 .51-.51 17 17 0 0 1-1.17-2.29 17 17 0 0 0 1.17 2.29m-17.06.27-.09-.07zm16.32-.49c-.4.25-1.17.09-1.62.29.45-.19 1.22 0 1.62-.29m-3.31 9.2a1.1 1.1 0 0 0 .33-.25 1.1 1.1 0 0 1-.33.25m.3-2.66a4 4 0 0 0 0 1.06 3.4 3.4 0 0 0 1.44-.42 3.4 3.4 0 0 1-1.4.42 4 4 0 0 1-.04-1.06m-5.01 1.22c-.1-.12-.43-.37-.45-.54 0 .17.35.41.45.54a4.7 4.7 0 0 0 1.28 1.43 5.3 5.3 0 0 0 1.71.29 5.3 5.3 0 0 1-1.71-.29 4.7 4.7 0 0 1-1.28-1.43m-1 .1c-.05-1.06.5-1.29.64-1.33-.13.03-.69.25-.64 1.33m6.25.73a1 1 0 0 1-.09.15 1 1 0 0 0 .09-.15m-.94-9.41A15 15 0 0 0 21.41 13c.21.23.57.46.61.61.11.45-.29 1-.25 1.29a6.6 6.6 0 0 1-4.46 1.4 6.6 6.6 0 0 0 4.47-1.4c0-.3.36-.84.25-1.29 0-.16-.39-.38-.61-.61a15 15 0 0 1-2.54-3.49c0-.09-.07-.5-.23-.58.14.07.17.5.21.59m-4.08-.79-.01-.02zM13.49 10c.27.54 1.38.49 1.81.21-.43.29-1.54.33-1.81-.21M10 2.24a.28.28 0 0 0 .21-.24.28.28 0 0 1-.21.24m4.74 14.13a10 10 0 0 0 1.36.37 10 10 0 0 1-1.36-.37m1.52-5.15a1.4 1.4 0 0 1-.64.53c-.59.17-1.77.11-2.07-.34.29.46 1.48.52 2.07.34a1.4 1.4 0 0 0 .64-.53.75.75 0 0 0-.06-.7.75.75 0 0 1 .06.7M7.34 4.94c.43-.11.81-1 1.14-1.46-.33.52-.71 1.35-1.14 1.46m8.47 5.18a7 7 0 0 1-1-1.83 7 7 0 0 0 1 1.83" class="cls-1"/><path d="M17.27 15.07c.06.28.14.55.46.64-.31-.09-.4-.36-.46-.64a7 7 0 0 1 .95-.74.68.68 0 0 0-.15-.41.68.68 0 0 1 .14.4 7 7 0 0 0-.94.75M7 12.33v-.09zm12.15 5.13a5 5 0 0 1 0 .53 5 5 0 0 0 0-.53m-1.98-2.75v-.09.1zm1.92 2.23c0 .14 0 .28.05.43-.01-.15-.03-.29-.05-.43M5 5.32A7.4 7.4 0 0 0 6.13 5 7.4 7.4 0 0 1 5 5.32m9 .48v.1zM7.17 16.85v-.3zm7.26 10.46.29-.22zm-5.49-4.55v-.01a6.7 6.7 0 0 0 2.27.4 6.7 6.7 0 0 1-2.27-.39m4.77 1.16a3.2 3.2 0 0 1 1.22.36.8.8 0 0 1 .07.22.8.8 0 0 0-.07-.22 3.2 3.2 0 0 0-1.22-.36c-.77 0-1.24-.1-1.45.18.21-.28.69-.18 1.45-.18m-1.37 3.56v-.05z" class="cls-1"/><path d="M23.63 10.57a14.24 14.24 0 0 1-2.14 8.62 6.3 6.3 0 0 1-1.37 1.68c-1.42 1-3.59 1.91-5.45 1.29a8 8 0 0 1-3.92-3 7.94 7.94 0 0 0 3.92 3c1.86.62 4-.29 5.45-1.29a6.3 6.3 0 0 0 1.36-1.68 14.24 14.24 0 0 0 2.15-8.62 9.6 9.6 0 0 0-.5-3.45 2 2 0 0 0-.22-.34 2 2 0 0 1 .22.33 9.6 9.6 0 0 1 .5 3.46M9 23.2a7.7 7.7 0 0 0 2.1.57A7.7 7.7 0 0 1 9 23.2m-1 .08q.74.48 1.51.89-.77-.41-1.51-.89a2.4 2.4 0 0 1-.19-.28l-.31-.36.31.36a2.4 2.4 0 0 0 .19.28M22.62 6.49l.17.17a2 2 0 0 0-.17-.17M7.24 22.36a2.7 2.7 0 0 0-.6-.58 2.8 2.8 0 0 1 .6.58m3.46-2.43a4.46 4.46 0 0 1-.93-2.09 4.47 4.47 0 0 0 .93 2.09m.44 5.01a12 12 0 0 0 .48 1.95l.12.39-.12-.39a12 12 0 0 1-.48-1.95m13.25-.45a2.3 2.3 0 0 0 .05-.61 2.3 2.3 0 0 1-.05.61M3.47 11.89l.14-.14zm-.53 1.17A2 2 0 0 1 3 12.7a2 2 0 0 0-.06.36m.28-.83a2 2 0 0 1 .13-.23 2 2 0 0 0-.13.23m18.42 14.02a5.12 5.12 0 0 0-.13-3.9.93.93 0 0 0-.69-.51 1 1 0 0 0-.51.1 1 1 0 0 1 .51-.11.93.93 0 0 1 .69.51 5.12 5.12 0 0 1 .13 3.9c.11.37.46.52.6.85-.14-.33-.5-.47-.6-.84m.5 1.03h1.55-.08zm-9.88-.05.07.13-.07-.14a6.6 6.6 0 0 1-.54-1.9v-.28c0-.83 0-1.91.59-2.05-.62.14-.62 1.22-.59 2.05v.28a6.6 6.6 0 0 0 .54 1.9zM3.79 11.61l.12-.09zm11.53 13.71c-.35-.19-.45-.29-.44-.37 0 .08.09.18.44.37a1.3 1.3 0 0 0 1 .07 1.3 1.3 0 0 1-1-.07M4.16 11.4h.09zM15 27.77v-.18za.15.15 0 0 0 .15.15.15.15 0 0 1-.15-.15" class="cls-1"/><path d="M20.83 22.79c-.75-.44-2.06.83-2.67 1.09h-.06.05c.61-.27 1.92-1.53 2.66-1.09a1.13 1.13 0 0 1 .35.65 7 7 0 0 1 .2 1.38 3 3 0 0 1-.07.87 1.1 1.1 0 0 1-.17.38 1.1 1.1 0 0 0 .17-.38 3 3 0 0 0 .07-.87 7 7 0 0 0-.2-1.38 1.13 1.13 0 0 0-.33-.65m-3.62 1.66a1 1 0 0 1-.49.74 1 1 0 0 0 .49-.74m1.98 2.82h-.77a.33.33 0 0 0-.67 0h-.95a6 6 0 0 0-.49-.68 6 6 0 0 1 .49.68zm-1.44 0a.33.33 0 0 1 .67 0zM7.34 11.6c-.06-.23-.15-.48-.2-.68.06.2.15.45.2.68m10.27 12.81a.7.7 0 0 0-.15-.13.7.7 0 0 1 .15.13M7.16 8.84a10 10 0 0 0 .21-2.54 10 10 0 0 1-.21 2.54" class="cls-1"/><path d="M17.27 27.2s.3-.73.73-.55.93.45 1.2.59c-.28-.14-.88-.45-1.2-.59s-.73.55-.73.55M4.13 12.21l.16-.11a.6.6 0 0 0-.16.11m13.41 13.23-.11.06zm-.54.14a.7.7 0 0 1-.19-.06.7.7 0 0 0 .19.06M4.49 12.66a.4.4 0 0 0-.2 0 .4.4 0 0 1 .19 0 2.29 2.29 0 0 0 .19 2.21 2.29 2.29 0 0 1-.18-2.21" class="cls-1"/><path d="m4.29 12.1-.16.11a1.22 1.22 0 0 0-.37.78 1.22 1.22 0 0 1 .37-.78zm12.92 12.1h.06za1 1 0 0 0-.58.2 1 1 0 0 1 .58-.2M3 12.63a2 2 0 0 1 .11-.28 2 2 0 0 0-.11.28M19.5 24a.5.5 0 0 1 .09-.22.5.5 0 0 0-.09.22c-.06.36.12.55-.06.85.18-.32 0-.51.06-.85m-.22 1a.4.4 0 0 0 .09-.08.4.4 0 0 1-.09.08m-.18-.51h-.41zl.23.09zm-.42 1.28a.7.7 0 0 1-.11-.54.66.66 0 0 0 .1.53l-.32-.08.32.08a12 12 0 0 0 2.46.3 12 12 0 0 1-2.45-.29m1.23-23.11a8.7 8.7 0 0 1 1.47 1.56 1.55 1.55 0 0 0-1.5 1.5 1.2 1.2 0 0 0 .12.49 1.2 1.2 0 0 1-.12-.48 1.55 1.55 0 0 1 1.5-1.5l.68.89c-1-.29-1.8.13-1.83.87a1 1 0 0 0 0 .24 1 1 0 0 1 0-.24c0-.73.86-1.15 1.83-.87l-.68-.89a8.7 8.7 0 0 0-1.48-1.56zm-2.19 22.57a.7.7 0 0 1-.1.13.7.7 0 0 0 .1-.13M3.65 10.7c-.1-1.18-.26-2.83.54-3.72a4.4 4.4 0 0 1 3-1.42 4.4 4.4 0 0 0-3 1.44c-.8.89-.64 2.54-.54 3.72zM16.2 23.17H16a2 2 0 0 1-.39-.08l-.19-.09c0 .05-.07 0-.08.08s.08 0 .08-.07l.19.07a2 2 0 0 0 .39.08h.41c.75 0 1.56-.35 2.24-.42-.69.06-1.49.37-2.25.42zm4.72 3.47a1.7 1.7 0 0 1 .73.64 1.7 1.7 0 0 0-.73-.64M19.9 2.66a4 4 0 0 0-.4-.27 4 4 0 0 1 .4.27M19.09 25h.06z" class="cls-1"/><path fill="none" stroke="#f0d6b7" stroke-linecap="round" stroke-linejoin="round" stroke-width="0" d="m4.13 12.21.16-.11"/><path d="M6.67 15.78a.51.51 0 0 1 .42.47v.6a8.8 8.8 0 0 0 2.7 5.65 16 16 0 0 0 1.55.16c.28-.6 1.3-.55 2-.4a6.65 6.65 0 0 1-2.16-1.77 4.5 4.5 0 0 1-1.48-2.66c.34.47.66.92 1 1.35a8 8 0 0 0 3.92 3c1.85.62 4-.28 5.45-1.29a6.3 6.3 0 0 0 1.37-1.68 14.24 14.24 0 0 0 2.14-8.62 9.6 9.6 0 0 0-.5-3.45 2 2 0 0 0-.22-.33l-.12-.13-.17-.17a1.81 1.81 0 0 0-2.36-.26 1 1 0 0 1 0-.24c-.14.13-.23.23-.23.23a1.2 1.2 0 0 1-.12-.49 1.55 1.55 0 0 1 1.5-1.5 8.7 8.7 0 0 0-1.46-1.59 10.5 10.5 0 0 0-6-.22 8.06 8.06 0 0 0-6 5.38 14 14 0 0 0-.39 2.26c0 .88.42 1.66.45 2.62-.24.39-1 .44-1.47.42 0-.19-.08-.38-.14-.57a5.2 5.2 0 0 0-1.26-.5 1.72 1.72 0 0 1 1 2c-.37-.21-.46-1.14-.89-1.18-.61 0-.5 1.22-.5 1.95a2.29 2.29 0 0 1-.19-2.21.4.4 0 0 0-.19 0 .66.66 0 0 0-.4.26c-.22 1-.55 1.87.06 2.91a1.74 1.74 0 0 0 1.4.6c.54-.03.68-.6 1.29-.6m6.88 2.42-.3-.06s-.32-1.11-.16-1.31a.8.8 0 0 1 .71-.12 1.7 1.7 0 0 1 .43.14c-.18.06-.73.29-.68 1.35m6.24.73a1 1 0 0 1-.09.15.88.88 0 0 1-.45.46 5.27 5.27 0 0 1-3.43 0 4.7 4.7 0 0 1-1.28-1.43c-.1-.13-.44-.37-.45-.54s.1-.17.44-.17c.72 1.8 3.18 1.59 5.26 1.54zM21 17.52a3.4 3.4 0 0 1-1.41.42 4 4 0 0 1 0-1.06 8.5 8.5 0 0 0 3-1.19A3.42 3.42 0 0 1 21 17.52m0-6.89c.45-.2 1.22 0 1.62-.29-.09-.25-.2-.48-.29-.73v.26c-.16.05-1.09.6-1.26.14a.6.6 0 0 1 0-.26 1.35 1.35 0 0 1 1-1.08 3 3 0 0 1 0-.4h.08a17 17 0 0 0 1.17 2.29 1.24 1.24 0 0 1-.51.51c-.72.43-1.88.55-1.86-.44zm-3.82 4v.09c.09-.51.26-1.09.55-1a.7.7 0 0 1 .51.64 7 7 0 0 0-.95.74c.06.28.14.55.46.64h.06c1.11.19 2.39-.68 3.19-1 .49-.83 0-1.14-.49-1.67-.91-1.1-2.13-2.46-2.09-4.1.09-.07.17-.08.22 0s.2.48.23.58A15 15 0 0 0 21.41 13c.21.23.57.46.61.61.11.45-.29 1-.25 1.29a6.6 6.6 0 0 1-4.47 1.4 1.32 1.32 0 0 1-.17-1.69zm2 2.32c0 .14 0 .28.05.43s0 .07 0 .1a5 5 0 0 1 0 .53c-1.81.09-4-.36-4.43-1.63a10.9 10.9 0 0 0 4.35.56zm-4.41-8.24a1.1 1.1 0 0 1 0-.44 7 7 0 0 0 1 1.83 2.4 2.4 0 0 1 .39.41.75.75 0 0 1 .06.7 1.4 1.4 0 0 1-.64.53c-.59.17-1.78.11-2.07-.34a.53.53 0 0 1 .06-.6c.65 0 1.53.42 2 0-.09-.15-.21-.34-.32-.55-.44.28-1.54.32-1.81-.21a.6.6 0 0 1-.06-.27c0-.85 1.34-1 1.34-1zm-3.16-3.35c.75-.51 1.26-.52 1.62-.32a1.27 1.27 0 0 1 .48.51h.08l.09.08.12.17v.1a.6.6 0 0 1 0 .1.5.5 0 0 1 0 .22v.15a2.2 2.2 0 0 0-1.93.34A3.5 3.5 0 0 0 11.1 8l-.1.19a.3.3 0 0 1-.08.11 1.6 1.6 0 0 1-.09-.23.4.4 0 0 1-.06-.14.6.6 0 0 0-.08-.1c-.3-.28-.42-1.56.92-2.47m-6.55 6.71h.01zm-1.15 3.68" class="cls-3"/><circle cx="19.9" cy="2.66" class="cls-3" transform="rotate(-55.78 19.901 2.66)"/><path d="m7.81 23-5.27 2.38.07.3c.08.32.21.89.36 1.6h8.75l-.12-.39a12 12 0 0 1-.48-1.95q-.8-.35-1.58-.76T8 23.28a2.4 2.4 0 0 1-.19-.28" class="cls-4"/><path fill="#6d6b6d" d="M6.13 5a2 2 0 0 1 .47-.09 4 4 0 0 0 .75 0c.43-.11.81-1 1.14-1.46l.14-.18a11 11 0 0 1 .94-.78A7.35 7.35 0 0 0 6.13 5m-2.26 5.58a2 2 0 0 1 1.19-.23 2 2 0 0 1 .36.07 2 2 0 0 1 .31.13h.08a2 2 0 0 1 .25.17l.09.07a2 2 0 0 1 .21.21l.08.09a2 2 0 0 1 .2.3v.05a2 2 0 0 1 .16.4 2 2 0 0 1 .06.34v.09c.43 0 .43-.35.33-.73-.06-.23-.15-.48-.2-.68a5.6 5.6 0 0 1 0-2.07 10 10 0 0 0 .38-2.49v-.24c-3.88.58-3.68 3.54-3.5 4.52"/><path d="m9.57 2.52.16-.17c.1 0 .21-.07.31-.11a.28.28 0 0 0 .17-.24c-.08-.09-.17-.16-.27-.13-1.82.5-4.15 1.82-4.94 3.45A7.4 7.4 0 0 0 6.13 5a7.35 7.35 0 0 1 3.44-2.48M3.65 10.7l.21-.12c-.18-1-.39-3.94 3.47-4.52a3 3 0 0 0-.14-.49 4.4 4.4 0 0 0-3 1.43c-.8.87-.63 2.52-.54 3.7" class="cls-6"/><path d="M9.87 22.5a8.8 8.8 0 0 1-2.7-5.65v-.6a.51.51 0 0 0-.42-.47c.28.63-.53.85-.61 1.31a4 4 0 0 0 .12.83 11.4 11.4 0 0 0 1.44 3.36 3.18 3.18 0 0 0 2.17 1.22m7.3-7.79a2.4 2.4 0 0 1 .1.36 7 7 0 0 1 .95-.74.68.68 0 0 0-.5-.64c-.29-.08-.46.5-.55 1zm5.15-4.85v-.27a3.2 3.2 0 0 1-.21-.91 1.35 1.35 0 0 0-1 1.08.6.6 0 0 0 0 .26c.12.44 1.05-.1 1.21-.16m-8.89-.12a.6.6 0 0 0 .06.27c.27.53 1.37.49 1.81.21a4 4 0 0 1-.53-1.49s-1.34.16-1.34 1.01m-9.54 3.15-.13.11a1.22 1.22 0 0 1 .37-.78.6.6 0 0 1 .16-.11 1 1 0 0 1 .78 0 5.2 5.2 0 0 1 1.25.49c-.19-.66-.52-1.25-1.2-1.33H5a2 2 0 0 0-.38 0h-.05l-.32.09h-.09l-.25.12-.12.09-.18.14-.14.14-.12.15a2 2 0 0 0-.14.21l-.07.11a2 2 0 0 0-.11.28v.08a2 2 0 0 0-.07.35v.14a3.86 3.86 0 0 0 1 2.56c-.62-.97-.3-1.81-.07-2.84m9.97-10.45a10.5 10.5 0 0 1 6 .22 4 4 0 0 0-.4-.27h-.07c-1.89-1.07-5.09-1.87-7.1-.87-1.62.81-3.81 2.15-4.56 3.84a4.1 4.1 0 0 1 .13 2.51 8.06 8.06 0 0 1 6-5.43m8.21 2.68-.68-.89a1.55 1.55 0 0 0-1.5 1.5 1.2 1.2 0 0 0 .12.48s.09-.1.23-.23c.02-.73.86-1.15 1.83-.86M10.79 8.06a1.6 1.6 0 0 0 .09.23.3.3 0 0 0 .12-.1.35.35 0 0 1-.21-.13" class="cls-7"/><path d="M11.61 5.36c-1.34.91-1.22 2.19-1 2.43a.6.6 0 0 1 .08.11 1.5 1.5 0 0 1 .11-.76 2.8 2.8 0 0 1 .41-.7l.06-.07a3 3 0 0 1 .21-.22h.06l.25-.2h.05l.29-.17h.08l.29-.12h.07l.32-.09h.35a1.2 1.2 0 0 1 .4.14 1.27 1.27 0 0 0-.41-.71c-.36-.15-.87-.14-1.62.36" class="cls-7"/><path d="M3 27.28c-.15-.72-.28-1.28-.36-1.6l-.07-.3L7.81 23l-.31-.36-.26-.3a2.8 2.8 0 0 0-.6-.58A24 24 0 0 0 1 25.25a20 20 0 0 1 .81 2z" class="cls-8"/><path d="m24.39 24.49-2.88-2.14a5.12 5.12 0 0 1 .13 3.9c.1.37.45.51.6.85l-.1.17h1.56a21 21 0 0 0 .55-2.06c0-.18.1-.47.16-.76z" class="cls-4"/><path fill="none" stroke="#335061" stroke-linecap="round" stroke-linejoin="round" stroke-width="0" d="M21.13 26.07"/><path d="m20.82 21.84-.24-.18a1.5 1.5 0 0 0-.27.28 1 1 0 0 1 .51-.1" class="cls-4"/><path d="M20.82 21.84a.93.93 0 0 1 .69.51l2.88 2.14a2.3 2.3 0 0 0 .06-.61c-.07-.54-.8-.93-1.17-1.27-.68-.61-1.11-1.15-1.82-1.72a4.4 4.4 0 0 1-.87.77l.24.18z" class="cls-8"/><path d="M18 26.65c-.42-.18-.73.55-.73.55a.4.4 0 0 0 0 .08h.47a.33.33 0 0 1 .67 0h.77c-.26-.18-.86-.49-1.18-.63" class="cls-10"/><path d="M17.27 27.27a.4.4 0 0 1 0-.08s.3-.73.73-.55.92.45 1.2.59v-.65c-.62 0-1-.56-1.39-.6s-.7.43-1.19.23l-.33.38a6 6 0 0 1 .49.68z" class="cls-6"/><path d="M8.89 22.86a.3.3 0 0 0 0 .12.27.27 0 0 0 .08.17 7.7 7.7 0 0 0 2.11.57 1.8 1.8 0 0 0 .11-.59 6.7 6.7 0 0 1-2.27-.4s-.01.1-.03.13" class="cls-10"/><path d="M11.05 24.06a1.2 1.2 0 0 1 0-.29A7.7 7.7 0 0 1 9 23.2a4.24 4.24 0 0 0 2.05.86" class="cls-6"/><path fill="#d33833" d="M20.17 23.5a.9.9 0 0 0-.58.26.5.5 0 0 0-.09.22c-.06.36.12.55-.06.85s0 0-.07.07a.4.4 0 0 1-.09.08h-.41a.6.6 0 0 0-.21.08.2.2 0 0 0-.07.1.7.7 0 0 0 .11.54 12 12 0 0 0 2.46.3 1.1 1.1 0 0 0 .17-.38 3 3 0 0 0 .07-.87 7 7 0 0 0-.2-1.38 3 3 0 0 0-1.03.13m-4.85 1.82c-.35-.19-.45-.29-.44-.37s.17-.2.14-.45a.8.8 0 0 0-.07-.22 3.2 3.2 0 0 0-1.22-.36c-.77 0-1.24-.1-1.45.18a1.47 1.47 0 0 0-.12 1c.07.76.13 1.52.2 2.27l-.07-.13v.25-.11l.26.49a4.8 4.8 0 0 0 1.83-.56l.29-.22c.53-.37 1-.75 1.54-1.17v-.53a1.3 1.3 0 0 1-.89-.07m1.95-1.1h-.06a1 1 0 0 1-.49 1c0 .09 0 .19.06.31h.05a.7.7 0 0 0 .19.06.7.7 0 0 0 .19 0h.09a.7.7 0 0 0 .13-.07l.11-.06.07-.08a.7.7 0 0 0 .1-.13 1 1 0 0 0 0-.12.7.7 0 0 0 0-.15.7.7 0 0 0 0-.13.7.7 0 0 0 0-.14 4 4 0 0 0-.12-.24h-.05a.7.7 0 0 0-.15-.13.7.7 0 0 0-.12-.12"/><path fill="#ef3d3a" d="M18.57 25.23a.2.2 0 0 1 .07-.1.6.6 0 0 1 .21-.08h.41a.4.4 0 0 0 .09-.08l.07-.07c.18-.3 0-.49.06-.85a.5.5 0 0 1 .09-.22.9.9 0 0 1 .58-.26 3 3 0 0 1 1 0 1.13 1.13 0 0 0-.35-.65c-.75-.44-2.06.83-2.66 1.09h-.05a1.7 1.7 0 0 1 .17.56 1.5 1.5 0 0 1 .41 0h.41l.24.09a4 4 0 0 0-.76.1.7.7 0 0 0-.2.1 9 9 0 0 0 0 .9l.32.08a.66.66 0 0 1-.11-.61m-6.23 2.14v.11c.05.18.1.34.25.38zM11.7 25v.28a6.6 6.6 0 0 0 .54 1.9l.07.14c-.06-.75-.13-1.51-.2-2.27a1.47 1.47 0 0 1 .12-1c.21-.27.68-.18 1.45-.18a3.2 3.2 0 0 1 1.22.36.8.8 0 0 1 .07.22c0 .25-.14.33-.14.45s.09.18.44.37a1.3 1.3 0 0 0 1 .07v-.06a3 3 0 0 0-.92-.29L15 25a1.6 1.6 0 0 1 .29-.11 3.3 3.3 0 0 0 .91-.28v-.24h-.38a1.6 1.6 0 0 1-.29-.13c-.18-.1-.33-.22-.53-.32a9 9 0 0 0-2.41-.92.7.7 0 0 0-.3 0c-.62.12-.62 1.21-.59 2m5.51-.55a1 1 0 0 0 0-.25 1 1 0 0 0-.58.2 1.7 1.7 0 0 0 0 .41v.37a1 1 0 0 0 .58-.73"/><path d="M13.31 5.41h-.35l-.32.09h-.07l-.29.12h-.08l-.29.17h-.05l-.25.2h-.06a3 3 0 0 0-.21.22l-.06.07a2.8 2.8 0 0 0-.41.7 1.5 1.5 0 0 0-.11.76.4.4 0 0 0 .06.14.35.35 0 0 0 .21.14L11.1 8a3.45 3.45 0 0 1 1-1.25 2.2 2.2 0 0 1 1.9-.37.6.6 0 0 0 0-.15.5.5 0 0 0 0-.11.6.6 0 0 0 0-.11.6.6 0 0 0 0-.1v-.1l-.06-.08-.09-.08h-.08a1.15 1.15 0 0 0-.46-.24m9.49 5.66a1.23 1.23 0 0 0 .51-.51 17 17 0 0 1-1.17-2.29h-.08a3 3 0 0 0 0 .4 3.2 3.2 0 0 0 .21.91c.09.24.2.48.29.73-.4.25-1.17.09-1.62.29-.02 1.02 1.15.9 1.86.47m-8.02-2.34a4 4 0 0 0 .53 1.49c.11.21.23.4.32.55-.49.47-1.37.08-2 0a.53.53 0 0 0-.06.6c.29.45 1.48.52 2.07.34a1.4 1.4 0 0 0 .64-.53.75.75 0 0 0-.06-.7 2.4 2.4 0 0 0-.39-.41 7 7 0 0 1-1-1.83 1.1 1.1 0 0 0 0 .44zm2.52 7.58a6.6 6.6 0 0 0 4.46-1.4c0-.3.36-.84.25-1.29 0-.16-.39-.38-.61-.61a15 15 0 0 1-2.54-3.49c0-.09-.07-.49-.23-.58s-.13 0-.22 0c0 1.64 1.18 3 2.09 4.1.44.54 1 .84.49 1.67-.8.3-2.08 1.17-3.19 1h-.06c-.32-.09-.4-.36-.46-.64a2.4 2.4 0 0 0-.1-.36v-.1a1.32 1.32 0 0 0 .17 1.7zM5.07 12.07a1 1 0 0 0-.77 0l-.16.11a1.22 1.22 0 0 0-.37.78l.12-.11a.66.66 0 0 1 .4-.26.4.4 0 0 1 .2 0 2.29 2.29 0 0 0 .17 2.18c0-.73-.11-2 .5-1.95.43 0 .53.94.89 1.17a1.72 1.72 0 0 0-1-2zm14.49 4.81a4 4 0 0 0 0 1.06 3.43 3.43 0 0 0 3-2.25 8.5 8.5 0 0 1-3 1.19m-4.82-.51c.47 1.27 2.62 1.72 4.43 1.63a5 5 0 0 0 0-.53v-.1c0-.03 0-.29-.05-.43a10.9 10.9 0 0 1-4.35-.56zm-.2 1.02c-.34 0-.45.07-.44.17s.35.41.45.54a4.7 4.7 0 0 0 1.28 1.43 5.27 5.27 0 0 0 3.42 0 .88.88 0 0 0 .45-.46 1 1 0 0 0 .09-.15c-2.07.08-4.53.27-5.25-1.53" class="cls-13"/><path d="M20.92 26.64a1.7 1.7 0 0 0-.31-.11 1.43 1.43 0 0 0-.92.12v.63h2a1.7 1.7 0 0 0-.77-.64" class="cls-14"/><path d="M16.21 23.17H16a2 2 0 0 1-.39-.08l-.18-.09c0 .05-.06 0-.08.07l.24.18.24.14a2.2 2.2 0 0 0 .48.19 3 3 0 0 0 .82.09h.33c.41-.3.78-.65 1.21-.93-.68.06-1.48.37-2.24.42z" class="cls-3"/><path d="m15.78 27-.35.23H16z" class="cls-14"/><path d="M23.83 21.57c-.28-.27-1.59-1.27-1.67-1.64s.53-1.18.73-1.59a11.7 11.7 0 0 0 .62-1.79c1-3.63 1.14-8.61-.34-11.59a12.5 12.5 0 0 0-3.1-3.43C17.77-.21 13.51-.4 10.74.62a13.5 13.5 0 0 0-2.2.94C6.72 2.63 4.79 3.34 4.25 5.49c-1.33.6-1.73 2.3-1.66 4.27A6.2 6.2 0 0 1 2.74 11c0 .18-.29.42-.34.54a5.3 5.3 0 0 0 .6 4.57 3.22 3.22 0 0 0 2.16 1.39 4.6 4.6 0 0 0 .45 1.67c.17.37.8 1 .57 1.52a7 7 0 0 1-1.49 1c-1.16.7-2 1.12-3.07 1.89-.69.5-1.77.56-1.6 1.71a18 18 0 0 0 .81 2.51l.08.2h11.43v-.26a.15.15 0 0 0-.15-.15.15.15 0 0 1 .15.15V28h11.42v-.22.22h.37c.26-.81.51-1.64.77-2.49a6.2 6.2 0 0 0 .48-2.19c-.08-.61-1.04-1.26-1.55-1.75M5 5.32c.75-1.63 3.08-3 4.9-3.47.1 0 .19 0 .27.13a.28.28 0 0 1-.18.26c-.1 0-.22.07-.31.11l-.16.17a11 11 0 0 0-.94.78l-.14.18c-.29.52-.67 1.35-1.1 1.46a4 4 0 0 1-.75 0 2 2 0 0 0-.46.06A7.4 7.4 0 0 1 5 5.32M4.19 7a4.4 4.4 0 0 1 3-1.42 3 3 0 0 1 .14.49v.24a10 10 0 0 1-.21 2.54 5.6 5.6 0 0 0 0 2.07c0 .21.14.45.2.68.1.38.1.71-.33.73H7v-.09a2 2 0 0 0-.06-.34 2 2 0 0 0-.16-.4v-.06a2 2 0 0 0-.2-.3L6.46 11a2 2 0 0 0-.21-.21l-.09-.07a2 2 0 0 0-.25-.17h-.08a2 2 0 0 0-.31-.13 2 2 0 0 0-.36-.07 2 2 0 0 0-1.19.23l-.21.12c-.21-1.18-.37-2.84.43-3.7m2 11a4 4 0 0 1-.12-.83c.09-.47.89-.68.61-1.31-.62 0-.76.56-1.32.62a1.78 1.78 0 0 1-1.42-.61 3.85 3.85 0 0 1-1-2.55v-.15A2 2 0 0 1 3 12.7v-.08a2 2 0 0 1 .11-.28l.07-.11a2 2 0 0 1 .17-.23l.12-.13.14-.14.18-.14.12-.09.25-.12h.09l.32-.09h.06a2 2 0 0 1 .38 0h.12c.68.07 1 .67 1.2 1.33.05.18.1.37.13.56.51 0 1.23 0 1.47-.42 0-1-.48-1.73-.45-2.62a14 14 0 0 1 .39-2.26 4.1 4.1 0 0 0-.13-2.51c.75-1.7 2.94-3 4.56-3.84 2-1 5.21-.2 7.1.87h.07a4 4 0 0 1 .4.27 8.7 8.7 0 0 1 1.48 1.56l.68.89c-1-.29-1.8.13-1.83.87a1 1 0 0 0 0 .24 1.81 1.81 0 0 1 2.36.26 2 2 0 0 1 .17.17l.12.13a2 2 0 0 1 .22.34 9.6 9.6 0 0 1 .5 3.45 14.24 14.24 0 0 1-2.15 8.62 6.3 6.3 0 0 1-1.36 1.68c-1.42 1-3.59 1.91-5.45 1.29a7.94 7.94 0 0 1-3.92-3c-.33-.43-.65-.88-1-1.35a4.47 4.47 0 0 0 1.47 2.65 6.65 6.65 0 0 0 2.16 1.77c-.67-.16-1.7-.21-2 .4a16 16 0 0 1-1.55-.16 3.18 3.18 0 0 1-2.22-1.17A11.4 11.4 0 0 1 6.21 18zm9.59 9 .18.23h-.53zm1.88-2.59a.55.55 0 0 1 .14.38.7.7 0 0 1 0 .13.7.7 0 0 1 0 .13 1 1 0 0 1 0 .12.7.7 0 0 1-.1.13l-.07.08-.11.06a.7.7 0 0 1-.13.07h-.09a.7.7 0 0 1-.19 0 .7.7 0 0 1-.18-.06h-.05c0-.12 0-.22-.06-.31v-.37a1.7 1.7 0 0 1 0-.41 1 1 0 0 1 .58-.2h.06a.7.7 0 0 1 .19.07.7.7 0 0 1 .15.13zm-1.35 2.14.33-.38c.49.21.81-.27 1.19-.23s.78.64 1.39.6v.65H16.8a6 6 0 0 0-.49-.6zm2.34-3.84c-.43.28-.79.63-1.21.93h-.33a3 3 0 0 1-.82-.09 2.2 2.2 0 0 1-.48-.19l-.24-.14-.24-.18s.08 0 .08-.08l.19.07a2 2 0 0 0 .39.08h.41c.76 0 1.57-.36 2.25-.42zm1 4.53v-.63a1.43 1.43 0 0 1 .92-.12 1.72 1.72 0 0 1 1 .75zm1.64-1.59a1.1 1.1 0 0 1-.17.38 12 12 0 0 1-2.46-.3l-.32-.08a9 9 0 0 1 0-.9.7.7 0 0 1 .2-.1 4 4 0 0 1 .76-.1l-.23-.09h-.41a1.5 1.5 0 0 0-.41 0 1.7 1.7 0 0 0-.17-.56h.06c.61-.27 1.92-1.53 2.67-1.09a1.13 1.13 0 0 1 .35.65 7 7 0 0 1 .2 1.38 3 3 0 0 1-.05.85zM1.81 27.28a20 20 0 0 0-.81-2 24 24 0 0 1 5.61-3.48 2.7 2.7 0 0 1 .6.58l.26.3.31.36a2.4 2.4 0 0 0 .24.26q.74.48 1.51.89t1.58.76a12 12 0 0 0 .48 1.95l.12.39zm9.39-4.11a1.8 1.8 0 0 1-.11.59 1.2 1.2 0 0 0 0 .29A4.24 4.24 0 0 1 9 23.2a.27.27 0 0 1-.13-.2.3.3 0 0 1 0-.12v-.08a6.7 6.7 0 0 0 2.27.4zm.51 2.14v-.28c0-.83 0-1.91.59-2.05a.7.7 0 0 1 .3 0 9 9 0 0 1 2.41.88c.19.11.35.23.53.32a1.6 1.6 0 0 0 .29.13h.38v.24a3.3 3.3 0 0 1-.91.28 1.6 1.6 0 0 0-.3.17h.37a3 3 0 0 1 .92.29v.59c-.49.42-1 .8-1.54 1.17l-.29.22a4.8 4.8 0 0 1-1.83.56c-.15 0-.2-.2-.25-.38v-.25a6.6 6.6 0 0 1-.67-1.89m3.4 2.61a.15.15 0 0 1-.15-.15v-.18.18a.15.15 0 0 0 .15.15m9.28-3.43c-.05.28-.12.58-.16.76a21 21 0 0 1-.55 2.06h-1.54l.1-.17c-.14-.33-.49-.48-.6-.85a5.12 5.12 0 0 0-.13-3.9.93.93 0 0 0-.69-.51 1 1 0 0 0-.51.11 1.5 1.5 0 0 1 .27-.28 4.4 4.4 0 0 0 .87-.77c.71.57 1.14 1.11 1.82 1.72.37.33 1.1.73 1.17 1.27a2.3 2.3 0 0 1-.04.56z" class="cls-13"/><path d="M14.19 16.87a1.7 1.7 0 0 0-.42-.15.8.8 0 0 0-.71.12c-.15.2.16 1.31.16 1.31l.3.06c-.02-1.09.54-1.31.67-1.34" class="cls-7"/><path fill="#1d1919" d="M18.09 27a.33.33 0 0 0-.33.32h.67a.33.33 0 0 0-.34-.32"/></g></g></svg>