<svg xmlns="http://www.w3.org/2000/svg" xmlns:xlink="http://www.w3.org/1999/xlink" viewBox="0 0 28 28"><linearGradient id="a" x1="114.33" x2="146.06" y1="-931.53" y2="-899.44" gradientTransform="matrix(.89 0 0 -.89 -95.28 -796.53)" gradientUnits="userSpaceOnUse"><stop offset="0" stop-color="#0296d8"/><stop offset="1" stop-color="#8371d9"/></linearGradient><linearGradient xlink:href="#a" id="d" x1="94.74" x2="126.48" y1="-912.16" y2="-880.07"/><linearGradient id="b" x1="105.61" x2="138.08" y1="-922.14" y2="-892.66" gradientTransform="matrix(.89 0 0 -.89 -95.28 -796.53)" gradientUnits="userSpaceOnUse"><stop offset="0" stop-color="#cb55c0"/><stop offset="1" stop-color="#f28e0e"/></linearGradient><linearGradient xlink:href="#a" id="e" x1="102.61" x2="134.35" y1="-919.95" y2="-887.86"/><linearGradient xlink:href="#b" id="f" x1="102.54" x2="135.01" y1="-918.76" y2="-889.28"/><path fill="url(#a)" d="m21.05 20.95-6.94-7-.01.01.03.03L.12 28H28v-.05z"/><path fill="url(#d)" d="M0 0v14.32L14.32 0z"/><path fill="url(#b)" d="M14.1 13.95h.01l6.94-7L27.94 0l-6.89 6.93z"/><path fill="url(#e)" d="m14.1 13.96.01-.01h-.01l6.95-7.02L27.94 0H14.32L0 14.32V28h.12l14.01-14.01z"/><path fill="url(#f)" d="m14.1 13.96.01-.01h-.01l6.95-7.02L27.94 0H14.32L0 14.32V28h.12l14.01-14.01z"/></svg>