<svg xmlns="http://www.w3.org/2000/svg" viewBox="0 0 63 57"><path fill="#e29f33" d="M23 2h33v4H7V2h3V0h10z"/><path fill="#edab37" d="M17 6h39v3H20l-2-2z"/><path fill="#f6bb42" d="M20 9h39v4H4V9h3V6h10l1 1z"/><path fill="#656d78" d="M63 19v36a2 2 0 0 1-2 2H2a2 2 0 0 1-2-2V19a2 2 0 0 1 2-2h59a2 2 0 0 1 2 2M43.5 39.5v-3a1.5 1.5 0 0 0-3 0V38h-18v-1.5a1.5 1.5 0 0 0-3 0v3A1.5 1.5 0 0 0 21 41h21a1.5 1.5 0 0 0 1.5-1.5"/><path fill="#ffce54" d="M59 16v1H4v-4h55z"/><path fill="#ccd1d9" d="M43.5 36.5v3A1.5 1.5 0 0 1 42 41H21a1.5 1.5 0 0 1-1.5-1.5v-3a1.5 1.5 0 0 1 3 0V38h18v-1.5a1.5 1.5 0 0 1 3 0"/><path fill="#fff" d="M7 11h49v2H7z"/><path fill="#e6e9ed" d="M10 4h43v2H10z"/><path fill="#545c66" d="M3 52.5a.5.5 0 0 1-.5-.5V22a.5.5 0 0 1 1 0v30a.5.5 0 0 1-.5.5m57 0a.5.5 0 0 1-.5-.5V22a.5.5 0 1 1 1 0v30a.5.5 0 0 1-.5.5"/></svg>