<svg xmlns="http://www.w3.org/2000/svg" xmlns:xlink="http://www.w3.org/1999/xlink" width="535.15" height="464.15" viewBox="0 0 501.704 435.14"><linearGradient id="a" x1="271.247" x2="360.737" y1="-703.74" y2="-548.963" gradientUnits="userSpaceOnUse"><stop offset="0" stop-color="#699ad7"/><stop offset=".243" stop-color="#7eb1dd"/><stop offset="1" stop-color="#7ebae4"/></linearGradient><linearGradient id="d" x1="280.497" x2="368.399" y1="-709.004" y2="-553.626" gradientUnits="userSpaceOnUse"><stop offset="0" stop-color="#415e9a"/><stop offset=".232" stop-color="#4a6baf"/><stop offset="1" stop-color="#5277c3"/></linearGradient><g fill-rule="evenodd"><path fill="#5277c3" d="m153.065 222.938 122.197 211.675-56.157.527-32.624-56.869-32.856 56.565-27.903-.01-14.29-24.69 46.81-80.49-33.23-57.826z"/><path fill="#7ebae4" d="M197.17 135.747 74.954 347.41l-28.535-48.37 32.939-56.687-65.416-.172L0 218.01l14.236-24.72 93.112.293 33.464-57.69zm9.377 169.2 244.414.012-27.622 48.897-65.562-.181 32.559 56.737-13.961 24.158-28.528.032-46.301-80.784-66.693-.135zm142.257-92.745L226.608.527 282.765 0l32.623 56.87L348.245.303l27.902.01 14.291 24.69-46.81 80.49 33.229 57.826z"/><path fill="#5277c3" d="m153.065 222.938 122.197 211.675-56.157.527-32.624-56.869-32.856 56.565-27.903-.01-14.29-24.69 46.81-80.49-33.23-57.826zm141.933-93.28-244.415-.012 27.623-48.897 65.562.182-32.56-56.737L125.17.035l28.527-.031 46.301 80.784 66.693.135zm9.535 169.69L426.751 87.685l28.534 48.37-32.938 56.688 65.415.171 13.942 24.17-14.237 24.721-93.112-.294-33.463 57.69z"/></g><g transform="translate(-156.339 933.19)"><path id="b" fill="url(#a)" fill-rule="evenodd" d="m309.549-710.388 122.197 211.675-56.157.527-32.624-56.87-32.856 56.566-27.903-.011-14.29-24.69 46.81-80.49-33.23-57.826z"/><use xlink:href="#b" width="100%" height="100%" transform="rotate(60 407.112 -715.787)"/><use xlink:href="#b" width="100%" height="100%" transform="rotate(-60 407.312 -715.7)"/><use xlink:href="#b" width="100%" height="100%" transform="rotate(180 407.419 -715.756)"/><path id="e" fill="url(#d)" fill-rule="evenodd" d="m309.549-710.388 122.197 211.675-56.157.527-32.624-56.87-32.856 56.566-27.903-.011-14.29-24.69 46.81-80.49-33.23-57.826z"/><use xlink:href="#e" width="100%" height="100%" transform="rotate(120 407.34 -716.084)"/><use xlink:href="#e" width="100%" height="100%" transform="rotate(-120 407.288 -715.87)"/></g></svg>