<svg xmlns="http://www.w3.org/2000/svg" viewBox="-0.13 0 32.152 32"><path fill="#ed6c47" d="M18 2A14.04 14.04 0 0 0 4 16l17.737 3.737z"/><path fill="#ff8f6b" d="M18 2a14.04 14.04 0 0 1 14 14l-7 4.758L18 16z"/><path fill="#d35230" d="M18 30a14.04 14.04 0 0 0 14-14H4a14.04 14.04 0 0 0 14 14"/><path d="M16.666 7h-9.36a13.914 13.914 0 0 0 .93 19h8.43A1.337 1.337 0 0 0 18 24.667V8.333A1.337 1.337 0 0 0 16.666 7" opacity=".1"/><path d="M15.666 8H6.54a13.906 13.906 0 0 0 2.845 19h6.282A1.337 1.337 0 0 0 17 25.667V9.333A1.337 1.337 0 0 0 15.666 8" opacity=".2"/><path d="M15.666 8H6.54a13.89 13.89 0 0 0 .766 17h8.361A1.337 1.337 0 0 0 17 23.667V9.333A1.337 1.337 0 0 0 15.666 8" opacity=".2"/><path d="M14.666 8H6.54a13.89 13.89 0 0 0 .766 17h7.361A1.337 1.337 0 0 0 16 23.667V9.333A1.337 1.337 0 0 0 14.666 8" opacity=".2"/><path fill="#c43e1c" d="M1.333 8h13.334A1.333 1.333 0 0 1 16 9.333v13.334A1.333 1.333 0 0 1 14.667 24H1.333A1.333 1.333 0 0 1 0 22.667V9.333A1.333 1.333 0 0 1 1.333 8"/><path fill="#f9f7f7" d="M7.997 11a4.17 4.17 0 0 1 2.755.805 2.88 2.88 0 0 1 .956 2.331 2.73 2.73 0 0 1-.473 1.588 3.16 3.16 0 0 1-1.344 1.186 4.6 4.6 0 0 1-2.02.424h-1.91V21H4V11zM5.96 15.683h1.687a2.2 2.2 0 0 0 1.492-.444 1.11 1.11 0 0 0 .504-1.026q0-1.659-1.933-1.659H5.96z"/><path fill="none" d="M0 0h32v32H0z"/></svg>