<svg xmlns="http://www.w3.org/2000/svg" width="400" height="400"><path fill="#b151bb" d="M295.035 285.896h8.546q0 37.507-12.107 54.598t-30.622 17.092q-14.955 0-28.724-11.157t-24.688-60.533l-20.415-92.105-70.74 160.471H71.419l101.6-218.868q-8.07-42.491-19.465-62.907t-28.249-20.415q-13.53 0-23.5 10.208T90.41 94.327h-8.546q.712-34.896 14.006-55.785 13.293-20.89 33.234-21.128 12.817 0 24.213 10.445 11.394 10.445 19.94 36.083 8.545 25.636 26.35 105.873l16.854 75.25q10.207 46.766 21.364 62.433c11.157 15.667 16.459 15.746 27.062 15.904q26.587 0 30.148-37.506"/></svg>