<svg xmlns="http://www.w3.org/2000/svg" viewBox="0 0 1877 1877"><g fill="#C86DD7"><path d="M156 50h110l1 501h94c11.201-16.093 11.201-16.093 21-33h2l.691-2.016c1.695-3.864 3.922-7.222 6.247-10.734l3.023-4.617 1.55-2.359a795 795 0 0 0 4.028-6.219c6.106-9.515 12.363-18.927 18.645-28.326 6.894-10.318 13.729-20.671 20.354-31.165 5.075-8.025 10.34-15.917 15.628-23.803 4.495-6.707 8.932-13.443 13.248-20.268 2.328-3.659 4.732-7.266 7.149-10.868l3.089-4.621 1.629-2.433c3.12-4.666 6.231-9.338 9.344-14.008l3.539-5.309 1.514-2.271L497 344c2.491-.295 4.733-.391 7.226-.361l2.282-.008c2.537-.005 5.073.012 7.61.028q2.72.002 5.439-.001c4.934-.001 9.867.017 14.801.038 5.151.019 10.303.02 15.455.024 9.76.009 19.521.034 29.281.064 13.186.04 26.372.056 39.558.073 20.783.029 41.565.088 62.348.143v-99H358V136h1160v109h-322l1 98 39.5-.203c8.25-.016 16.5-.029 24.76-.027 13.1.001 26.2-.011 39.3-.103 9.54-.066 19.09-.091 28.63-.065 5.05.012 10.1.003 15.15-.056 4.76-.055 9.52-.054 14.28-.01q2.61.011 5.22-.044c13.13-.257 13.13-.257 18.13 4.09 2.32 3.044 4.2 6.059 6.03 9.418 1.14 1.777 2.28 3.549 3.44 5.313.55.888 1.1 1.776 1.67 2.691 2.28 3.621 4.64 7.186 7.02 10.746.4.614.81 1.228 1.23 1.861 2.06 3.086 4.16 6.133 6.33 9.143 1.89 2.661 3.51 5.322 5.09 8.172 2.85 4.831 6.09 9.425 9.22 14.074l3.06 4.625c1.98 2.984 4.04 5.904 6.13 8.813 3.27 4.638 6.2 9.449 9.12 14.312 3.37 5.593 6.84 11.039 10.69 16.313 3.8 5.198 7.42 10.484 10.94 15.875.46.698.92 1.396 1.39 2.115 2.06 3.179 3.88 6.249 5.3 9.763 1.26 2.931 2.06 4.144 4.37 6.184 4.49 5.919 8.46 12.214 12.45 18.474 2.8 4.379 5.66 8.711 8.55 13.026 3.94 5.884 7.8 11.818 11.6 17.793 3.41 5.272 6.92 10.483 10.4 15.707l95 1V50h109v611h-263c-5.13-6.41-9.72-12.39-13.94-19.312-3.44-5.554-6.92-11.034-10.68-16.375-3.72-5.288-7.17-10.7-10.56-16.201-3.44-5.573-7.06-11.019-10.77-16.416-3.05-4.483-3.05-4.483-3.05-6.696h-2c-1.14-1.746-2.18-3.55-3.19-5.375a151 151 0 0 0-9.23-14.371c-1.65-2.357-3.12-4.777-4.58-7.254-4.18-6.698-8.51-13.286-12.91-19.844a667 667 0 0 1-6.46-9.968c-3.12-4.87-6.29-9.699-9.5-14.5a1053 1053 0 0 1-10.63-16.188c-3.46-5.363-6.95-10.7-10.5-16a1345 1345 0 0 1-12.33-18.779c-.66-1.011-.66-1.011-1.32-2.041-.57-.886-.57-.886-1.16-1.79-1.19-1.89-1.19-1.89-2.19-4.468-1.69-2.53-1.69-2.53-3.8-2.888-2.48-.185-4.92-.203-7.41-.173l-2.89-.026c-3.21-.022-6.42-.008-9.63.006a3248.279 3248.279 0 0 0-25.62-.05c-6.53.003-13.05-.022-19.57-.044q-16.425-.049-32.85-.051c-11.29-.003-22.57-.016-33.85-.043l-2.12-.005-18.33-.046c-26.31-.066-52.62-.08-78.93-.102V245h-93v1065H884V245h-94v207l-50.723-.168a22414 22414 0 0 0-31.759-.014q-8.341.004-16.682.005h-2.112a7030 7030 0 0 1-33.745-.09 5062 5062 0 0 0-34.636-.037c-6.484.014-12.968.008-19.452-.044-6.103-.048-12.204-.045-18.308-.003q-3.36.011-6.72-.038c-11.593-.673-11.593-.673-21.692 3.791-1.829 2.828-3.025 5.443-4.171 8.598a73 73 0 0 1-2.492 3.879l-1.171 1.812-1.212 1.872-1.353 2.09a3681 3681 0 0 1-10.138 15.553l-5.532 8.445a1177 1177 0 0 0-11.537 17.929c-1.564 2.418-3.2 4.767-4.877 7.108-3.521 4.965-6.717 10.106-9.921 15.279-4.347 7.003-8.929 13.839-13.548 20.666-5.156 7.668-10.112 15.454-15.032 23.275a363 363 0 0 1-10.452 15.627c-2.893 4.111-5.693 8.285-8.485 12.465l-1.826 2.734c-4.41 6.642-8.61 13.389-12.725 20.216-3.344 5.529-6.935 10.794-10.699 16.05l-8 12H156z"/><path d="M680 1079h110v325h406v433h-109v-324H681zM1086 546h110v764h-109l-.152-89.767-.004-2.3-.13-77.192-.004-2.56-.092-55.181-.045-27.089-.004-2.722-.146-86.195-.17-101.923-.005-2.543q-.03-18.479-.063-36.958l-.093-56.178-.003-2.275a101666 101666 0 0 1-.1-177.559z"/><path d="m884 1606 54.438-.062 17.216-.028 10.147-.005q3.401-.003 6.802-.01 5.139-.01 10.278-.008l3.083-.011 2.778.004 2.433-.003C993 1606 993 1606 994 1607c.099 1.98.126 3.965.127 5.947l.008 3.927q-.002 2.178-.006 4.355l.006 4.56q.005 6.246-.001 12.49-.002 6.627.002 13.254.002 11.235-.006 22.468-.007 12.708.002 25.416.007 11.059.003 22.118-.003 6.533.001 13.066c.019 34.145-.611 68.25-1.136 102.399H681l-1-230h110v122h94zM680 546h110v446H681z"/></g></svg>