<svg xmlns="http://www.w3.org/2000/svg" viewBox="0 0 24.94 16.43"><g data-name="Calque 2"><path fill="#0277bd" d="M20.86.15a4.4 4.4 0 0 1 2.22 1.28 5.9 5.9 0 0 1 .85 1.14s-1.53 1.08-2.46 1.66c0 0-.17-.12-.32-.35a2 2 0 0 0-1.67-1c-1.08-.07-1.77.49-1.77 1.43a1.3 1.3 0 0 0 .15.67c.24.49.68.78 2.06 1.38 2.54 1.1 3.64 1.82 4.31 2.84a5.16 5.16 0 0 1 .42 4.33 4.76 4.76 0 0 1-3.93 2.82 11 11 0 0 1-2.71 0 6.53 6.53 0 0 1-3.62-1.88 6.3 6.3 0 0 1-.93-1.37 3 3 0 0 1 .33-.21l1.32-.76 1-.6.21.31a4.8 4.8 0 0 0 1.35 1.29 3.3 3.3 0 0 0 3.46-.17 1.55 1.55 0 0 0 .2-2c-.28-.4-.84-.73-2.44-1.42a8.8 8.8 0 0 1-3.35-2.06 4.7 4.7 0 0 1-1-1.78 7.1 7.1 0 0 1-.06-2.27A4.33 4.33 0 0 1 18.17.06a9 9 0 0 1 2.69.09m-8.34 1.48v1.45H7.9v13.15H4.63V3.09H0V1.66A14 14 0 0 1 0 .19h12.46z" data-name="Calque 1"/></g></svg>