<svg xmlns="http://www.w3.org/2000/svg" xml:space="preserve" width="252.455" height="216.917" viewBox="0 0 66.795 57.393"><g style="display:inline"><path d="m176.643 193.61 11.194 25.757h1.377l10.558-25.758h-3.43l-5.825 14.288-6.2-14.288z" style="font-size:76.2691px;line-height:1.25;font-family:Compacta;-inkscape-font-specification:Compacta;font-variant-ligatures:none;letter-spacing:-1.30293px;fill:#be5946;fill-opacity:1;stroke-width:3.17789" transform="translate(-154.253 -164.845)"/><g style="fill:#e6876a;fill-opacity:1"><path d="M196.342 193.61h3.43l7.057-17.218q1.527-3.762 3.5-5.587 1.379-1.228 4.06-1.713v-1.378h-15.567v1.378q.448.075.633.112 2.57.41 3.65 1.415 1.08.968 1.08 2.048 0 1.677-1.75 5.996zM176.643 193.61h7.674l-6.647-15.32q-1.713-3.946-1.713-5.809 0-1.34 1.042-2.197 1.043-.856 4.544-1.192v-1.378h-20.631v1.378q2.308.186 3.649.857a6.3 6.3 0 0 1 2.309 1.788q.596.745 2.048 4.096z" style="font-size:76.2691px;line-height:1.25;font-family:Compacta;-inkscape-font-specification:Compacta;font-variant-ligatures:none;letter-spacing:-1.30293px;fill:#e6876a;fill-opacity:1;stroke-width:3.17789" transform="translate(-154.253 -164.845)"/></g></g></svg>