<svg xmlns="http://www.w3.org/2000/svg" viewBox="0 0 1024 1024"><path fill="#4b61db" d="M737.365 737.365H286.592V286.592h450.773m180.31 180.31v-90.155H827.52v-90.155c0-50.048-40.533-90.155-90.155-90.155h-90.154v-90.154h-90.155v90.154h-90.155v-90.154h-90.154v90.154h-90.155c-50.048 0-90.155 40.107-90.155 90.155v90.155h-90.154V466.9h90.154v90.155h-90.154v90.155h90.154v90.154a90.155 90.155 0 0 0 90.155 90.155h90.155v90.155H466.9V827.52h90.155v90.155h90.155V827.52h90.154a90.155 90.155 0 0 0 90.155-90.155v-90.154h90.155v-90.155H827.52v-90.155m-270.464 90.155h-90.155v-90.155h90.155m90.155-90.154H376.747V647.21H647.21z"/></svg>