<svg xmlns="http://www.w3.org/2000/svg" viewBox="0 0 612 490.05"><path d="M547.81 50.4H306L243 0H64.19A64.19 64.19 0 0 0 0 64.19v361.67A64.19 64.19 0 0 0 64.19 490h483.62A64.19 64.19 0 0 0 612 425.86V114.59a64.19 64.19 0 0 0-64.19-64.19M61 427.9V110.4h488v78.19a19.34 19.34 0 0 0-12.17 6.31L403.59 343.72l-107.86-96.88a19.36 19.36 0 0 0-27.35 1.38l-.11.12-146.21 163.11a19.39 19.39 0 0 0-4.63 16.45Zm98.52 0 124.72-139.32 107.87 96.88a19.36 19.36 0 0 0 27.35-1.38l.11-.12L549 239.57V427.9Z" style="fill:#8e95b2"/></svg>