<svg xmlns="http://www.w3.org/2000/svg" viewBox="0 0 260.93 208.43"><g data-name="Calque 2"><path d="M235 20.9H130.66L104.21 0H26.05A25.94 25.94 0 0 0 .13 26v.09L0 182.38a26 26 0 0 0 26 26.05h208.48a26 26 0 0 0 26-26v-.1L260.93 47A26 26 0 0 0 235 20.9m-.1 161.48H26.05L26.45 47h208.43Z" style="fill:#6bb96c"/><path d="M169.45 40.05a79.57 79.57 0 0 0-.1 159.14h.11a79.57 79.57 0 1 0 0-159.14Zm-37.32 96.64c2.6 3.47 6.07 4.92 11 4.92a16.9 16.9 0 0 0 6.65-1.16 58 58 0 0 0 7.23-3.76l8.11 11.57a34.5 34.5 0 0 1-22.86 8.1 35.8 35.8 0 0 1-17.94-4.36 29.1 29.1 0 0 1-11.58-12.73 44.7 44.7 0 0 1-4-19.4 45.7 45.7 0 0 1 4-19.38 30.73 30.73 0 0 1 11.59-13.31c4.92-3.18 11-4.63 17.65-4.63a32.9 32.9 0 0 1 12.44 2 37.6 37.6 0 0 1 10.7 6.45L157 102a31.4 31.4 0 0 0-6.65-3.77 18.6 18.6 0 0 0-7-1.15c-9.83 0-14.75 7.52-14.75 22.85-.28 7.82 1.16 13.31 3.48 16.78Zm79.57 17.94c-2.89 9-7.24 15.63-13.32 20.54s-14.17 7.53-24.3 8.39l-2-13.59c6.65-.87 11.57-2.32 14.75-4.64a36.5 36.5 0 0 0 3.48-3.47l-24-77h20l13.89 57.57 14.68-57.53h19.38Z" style="fill:#6bb96b"/></g></svg>