<svg xmlns="http://www.w3.org/2000/svg" viewBox="0 0 260.93 208.43"><g fill="#306eb5"><path d="M235 20.9H130.66L104.21 0H26.05A25.94 25.94 0 0 0 .13 26v.09L0 182.38a26 26 0 0 0 26 26.05h208.48a26 26 0 0 0 26-26v-.1L260.93 47A26 26 0 0 0 235 20.9m-.1 78.36A76.18 76.18 0 0 0 193.25 47h41.63ZM26.45 182.38h-.4L26.45 47h101.27a79 79 0 0 0-7.58 4.12 76.35 76.35 0 0 0 2.75 131.31H26.45Zm208 0h-36.56c.94-.53 1.87-1.07 2.79-1.65a7.62 7.62 0 0 0 2.15-11l-59.11-81.25A7.64 7.64 0 0 0 129.91 93v45.8a7.64 7.64 0 0 0 15.27 0v-22.36l40.16 55.22a61.09 61.09 0 1 1 22.59-17.41 7.63 7.63 0 1 0 11.88 9.58 76.2 76.2 0 0 0 15.07-31.29v49.84Z"/><path d="M183.34 85.34a7.63 7.63 0 0 0-7.63 7.66v22.9a7.63 7.63 0 0 0 15.26 0V93a7.63 7.63 0 0 0-7.63-7.66" class="cls-1"/></g></svg>