<svg xmlns="http://www.w3.org/2000/svg" viewBox="0 0 260.93 208.43"><path fill="#8e95b2" d="M235 20.9H130.66L104.21 0H26.05A25.94 25.94 0 0 0 .13 26v.09L0 182.38a26 26 0 0 0 26 26.05h208.48a26 26 0 0 0 26-26v-.1L260.93 47A26 26 0 0 0 235 20.9m-.1 161.48H26.05L26.45 47h208.43Z"/><path fill="none" stroke="#8e95b2" stroke-miterlimit="10" stroke-width="24" d="m98.36 178.47-44.83-52.81 44.83-52.81m89.67 1.87 44.83 52.73-44.83 52.81"/><path fill="#8e95b2" d="M136.07 187.57h-23.04l35.61-123.82h23.05z"/></svg>