<svg xmlns="http://www.w3.org/2000/svg" viewBox="0 0 260.73 208.58"><path fill="#7eb73c" d="M234.68 20.91H130.37c.74 0-25.8-20.91-26.07-20.91H26.07A26 26 0 0 0 .13 26.06L0 182.51a26.06 26.06 0 0 0 26.05 26.07h208.61a26.06 26.06 0 0 0 26.07-26.05V47a26.07 26.07 0 0 0-26.05-26.09"/><path fill="#fff" d="M143.7 42c-46.87 10.57-76.89 54.56-67 98.24s55.85 70.52 102.73 60c7.83-1.77 12.82-9.08 11.17-16.38a12.7 12.7 0 0 0-5.67-8 12.87 12.87 0 0 1-5.51-8c-1.65-7.29 3.35-14.61 11.17-16.37l16.65-3.76c26-5.87 42.72-30.32 37.24-54.58-8.8-38.88-53.91-61.77-100.78-51.15m-34 90.79c-7.83 1.77-15.47-2.69-17.12-10s3.34-14.61 11.17-16.37 15.48 2.69 17.12 10-3.37 14.58-11.2 16.33ZM130 91.22c-7.82 1.76-15.47-2.7-17.12-10s3.35-14.61 11.18-16.38 15.47 2.7 17.12 10-3.32 14.61-11.18 16.38m47.16-10.64c-7.83 1.76-15.47-2.7-17.12-10s3.38-14.58 11.2-16.37 15.48 2.7 17.12 10-3.36 14.6-11.17 16.37Zm36.23 28.77c-7.83 1.76-15.48-2.7-17.12-10s3.37-14.6 11.2-16.35 15.47 2.7 17.12 10-3.35 14.58-11.17 16.35Z"/></svg>