<svg xmlns="http://www.w3.org/2000/svg" viewBox="0 0 260.73 208.58"><path fill="#d5843d" d="M234.68 20.91H130.37c.74 0-25.8-20.91-26.07-20.91H26.07A26 26 0 0 0 .13 26.06L0 182.51a26.06 26.06 0 0 0 26.05 26.07h208.61a26.06 26.06 0 0 0 26.07-26.05V47a26.07 26.07 0 0 0-26.05-26.09"/><path fill="none" stroke="#fff" stroke-miterlimit="10" stroke-width="24" d="m98.36 178.47-44.83-52.81 44.83-52.81m89.67 1.87 44.83 52.73-44.83 52.81"/><path fill="#fff" d="M136.07 187.57h-23.04l35.61-123.82h23.05z"/></svg>